<svg width="99" height="61" viewBox="0 0 99 61" fill="none" xmlns="http://www.w3.org/2000/svg">
<path d="M32.8569 28.4195C32.6932 28.356 32.5232 28.2352 32.3469 28.0571C32.1831 27.8664 32.1013 27.6439 32.1013 27.3896V24.643L32.0068 24.0517C32.1202 23.6448 32.2209 23.2061 32.3091 22.7356C32.3972 22.2652 32.4413 21.8137 32.4413 21.3814C32.4413 21.2924 32.4161 21.2161 32.3658 21.1525C32.328 21.089 32.2776 21.0317 32.2146 20.9809C32.1643 20.9173 32.1139 20.8664 32.0635 20.8283C32.0257 20.7774 32.0068 20.7202 32.0068 20.6566C32.0068 20.1607 32.0194 19.6712 32.0446 19.188C32.0824 18.7048 32.1013 18.2597 32.1013 17.8528V17.3188L32.0068 16.8228C32.0068 16.4541 32.0446 16.079 32.1202 15.6975C32.1957 15.316 32.2335 14.9219 32.2335 14.5149C32.2335 14.2988 32.2209 14.108 32.1957 13.9427C32.1831 13.7774 32.1202 13.5931 32.0068 13.3896L32.2713 11.2534L32.0446 9.9373L32.1769 7.1335L32.1013 6.27519C32.0383 6.07174 32.0194 5.84921 32.0446 5.60762C32.0698 5.36602 32.0257 5.14985 31.9124 4.95912C31.8116 4.75566 31.6857 4.57129 31.5345 4.40598C31.3834 4.24068 31.2386 4.10081 31.1 3.98637C30.9237 3.7702 30.7159 3.62397 30.4766 3.54767C30.2373 3.47138 29.954 3.36966 29.6265 3.2425L29.5887 2.80381C29.8154 2.52406 30.0107 2.28882 30.1744 2.09809C30.3507 1.89464 30.5207 1.72297 30.6844 1.5831C30.8608 1.44323 31.0434 1.32243 31.2323 1.22071C31.4212 1.10626 31.6479 0.998181 31.9124 0.896455L32.7247 0.267029L34.8594 0C34.9602 0 35.0861 0.0572206 35.2372 0.171662C35.401 0.273387 35.5584 0.400544 35.7095 0.553132C35.8607 0.70572 35.9866 0.871024 36.0873 1.04904C36.2007 1.21435 36.2574 1.36058 36.2574 1.48773C36.2574 1.85649 36.2007 2.19981 36.0873 2.5177C35.9866 2.8356 35.9362 3.14077 35.9362 3.43323C35.9362 3.68755 35.9236 3.89736 35.8984 4.06266C35.8858 4.22796 35.8669 4.38691 35.8418 4.5395C35.8292 4.69209 35.8103 4.85103 35.7851 5.01634C35.7725 5.16892 35.7662 5.3533 35.7662 5.56947L35.5773 7.32423V10.3378C35.5773 10.4777 35.571 10.6049 35.5584 10.7193C35.5458 10.8338 35.5269 10.98 35.5017 11.158C35.4639 11.4886 35.445 11.7811 35.445 12.0354C35.445 12.099 35.4513 12.1816 35.4639 12.2833C35.4891 12.3851 35.5206 12.4868 35.5584 12.5885C35.5962 12.6902 35.6466 12.7793 35.7095 12.8556C35.7725 12.9318 35.8481 12.97 35.9362 12.97C36.1755 12.97 36.377 12.9255 36.5407 12.8365C36.7171 12.7475 36.8808 12.6394 37.0319 12.5122C37.183 12.3851 37.3279 12.2579 37.4664 12.1308C37.6175 11.9909 37.7813 11.8764 37.9576 11.7874C38.2347 11.673 38.5432 11.5776 38.8833 11.5013C39.2233 11.425 39.5696 11.3678 39.9223 11.3297C40.2875 11.2788 40.6464 11.2407 40.9991 11.2152C41.3643 11.1898 41.6981 11.1771 42.0003 11.1771C42.1515 11.1771 42.2711 11.1962 42.3593 11.2343C42.4474 11.2597 42.5293 11.2915 42.6048 11.3297C42.6804 11.3678 42.7623 11.4123 42.8504 11.4632C42.9386 11.5013 43.0582 11.5331 43.2094 11.5586L43.9272 11.6539L44.1917 11.7874C44.368 11.94 44.5632 12.0863 44.7773 12.2261C44.9914 12.366 45.2055 12.5122 45.4196 12.6648C45.6463 12.8047 45.8604 12.9573 46.0619 13.1226C46.276 13.2879 46.4587 13.4659 46.6098 13.6566C46.8743 13.9872 47.1388 14.3624 47.4032 14.782C47.6677 15.1889 47.9007 15.6212 48.1022 16.079C48.3163 16.5367 48.4863 17.0136 48.6123 17.5095C48.7382 17.9927 48.8012 18.4695 48.8012 18.94C48.7004 19.5504 48.6249 20.1607 48.5745 20.7711C48.5367 21.3814 48.4171 21.9918 48.2156 22.6021C48.0392 23.2252 47.8503 23.7465 47.6488 24.1661C47.4473 24.5858 47.208 24.9609 46.9309 25.2915C46.6539 25.6221 46.3264 25.9336 45.9486 26.2261C45.5708 26.5185 45.1174 26.8428 44.5884 27.1988C44.3869 27.3133 44.2232 27.4023 44.0973 27.4659C43.9713 27.5167 43.8517 27.5676 43.7383 27.6185C43.6376 27.6566 43.5242 27.7075 43.3983 27.771C43.2849 27.8346 43.1401 27.9363 42.9638 28.0762L42.6993 28.3051L37.9576 28.7056L36.3518 28.5149C36.2511 28.5022 36.0936 28.4895 35.8795 28.4768C35.678 28.464 35.4576 28.445 35.2183 28.4195C34.9917 28.3941 34.7524 28.3687 34.5005 28.3433C34.2612 28.3178 34.0534 28.286 33.8771 28.2479L32.8569 28.4195ZM35.445 20.3896C35.445 20.4913 35.4639 20.663 35.5017 20.9046C35.5395 21.1462 35.5836 21.4196 35.634 21.7247C35.6969 22.0299 35.7662 22.3478 35.8418 22.6784C35.9173 23.009 35.9929 23.3142 36.0685 23.5939C36.1566 23.8737 36.2385 24.1153 36.314 24.3187C36.3896 24.5095 36.4589 24.6176 36.5218 24.643C36.673 24.7574 36.7989 24.8592 36.8997 24.9482C37.0004 25.0372 37.0886 25.1262 37.1642 25.2152C37.2397 25.2915 37.3216 25.3869 37.4097 25.5013C37.4979 25.603 37.6112 25.7365 37.7498 25.9018C37.8128 25.9908 37.8946 26.0799 37.9954 26.1689C38.1087 26.2452 38.2221 26.3278 38.3354 26.4168C38.4614 26.4931 38.581 26.5758 38.6943 26.6648C38.8077 26.7411 38.9021 26.8174 38.9777 26.8937H40.659C40.8857 26.8937 41.125 26.8873 41.3769 26.8746C41.6414 26.8619 41.8933 26.8237 42.1326 26.7601C42.3844 26.6966 42.6174 26.6012 42.8315 26.474C43.0456 26.3469 43.2157 26.1689 43.3416 25.94C43.4549 25.6857 43.5557 25.3741 43.6439 25.0054C43.732 24.6239 43.8706 24.306 44.0595 24.0517L44.5884 23.4223C44.5884 23.3969 44.5947 23.3269 44.6073 23.2125C44.6325 23.098 44.6577 22.9645 44.6829 22.8119C44.7207 22.6593 44.7584 22.5068 44.7962 22.3542C44.834 22.1889 44.8655 22.0426 44.8907 21.9155C44.8907 21.7629 44.8718 21.6294 44.834 21.5149C44.7962 21.3878 44.7773 21.2543 44.7773 21.1144L44.9851 20.2942C44.9851 20.1925 44.9725 20.0336 44.9474 19.8174C44.9348 19.5885 44.9033 19.3342 44.8529 19.0544C44.8151 18.762 44.771 18.4632 44.7207 18.158C44.6703 17.8528 44.6073 17.5604 44.5318 17.2806C44.4688 17.0009 44.3932 16.7593 44.3051 16.5558C44.2295 16.3396 44.1476 16.1871 44.0595 16.0981L42.4348 14.4768C42.2081 14.4768 41.994 14.4069 41.7925 14.267C41.591 14.1271 41.3832 13.9809 41.1691 13.8283C40.955 13.663 40.7346 13.5104 40.5079 13.3705C40.2938 13.2307 40.0545 13.1607 39.79 13.1607L38.0898 13.5041H37.1453C36.9689 13.5041 36.8304 13.5549 36.7297 13.6566C36.6289 13.7584 36.503 13.8347 36.3518 13.8855C36.3266 13.8855 36.27 13.8982 36.1818 13.9237C36.1062 13.9491 36.0181 13.9872 35.9173 14.0381C35.8292 14.089 35.7473 14.1589 35.6717 14.2479C35.6088 14.3242 35.5773 14.4132 35.5773 14.5149V16.0981C35.4387 16.1998 35.3695 16.3778 35.3695 16.6321C35.3695 16.6957 35.3821 16.7593 35.4073 16.8228C35.4324 16.8737 35.445 16.9119 35.445 16.9373L35.5773 18.5395L35.445 20.3896Z" fill="white"/>
<path d="M51.0304 28.6103C50.9926 28.6103 50.9485 28.6103 50.8981 28.6103C50.8477 28.6103 50.7911 28.5976 50.7281 28.5721H50.3314L50.1047 28.3814V27.4849L50.5392 26.7983C50.6525 26.7474 50.7848 26.722 50.9359 26.722C51.087 26.7093 51.1689 26.7029 51.1815 26.7029C51.2319 26.7029 51.3452 26.6966 51.5215 26.6839C51.7104 26.6584 51.8616 26.6203 51.9749 26.5694C52.2646 26.633 52.4724 26.6648 52.5983 26.6648C52.7495 26.5503 52.8943 26.3978 53.0328 26.207C53.1714 26.0163 53.291 25.8065 53.3918 25.5776C53.5051 25.3487 53.587 25.1198 53.6374 24.8909C53.7003 24.6621 53.7318 24.4523 53.7318 24.2615V22.1444C53.7318 21.6993 53.7318 21.267 53.7318 20.8474C53.7444 20.415 53.7696 20.1098 53.8074 19.9318C53.7696 19.5885 53.7444 19.2515 53.7318 18.9209C53.7192 18.5776 53.7003 18.2343 53.6751 17.891L53.5429 15.9073C53.5051 15.3097 53.4736 14.712 53.4484 14.1144C53.4233 13.5168 53.4107 12.9128 53.4107 12.3024C53.4107 12.2388 53.417 12.1943 53.4295 12.1689C53.4421 12.1308 53.4988 12.0799 53.5996 12.0163C53.5492 11.8129 53.5177 11.6285 53.5051 11.4632C53.5051 11.2979 53.5051 11.1199 53.5051 10.9291C53.5051 10.7511 53.5051 10.5731 53.5051 10.3951C53.5177 10.2043 53.5492 10.0072 53.5996 9.80379C53.4988 9.74021 53.417 9.64484 53.354 9.51769C53.3036 9.39053 53.2784 9.21887 53.2784 9.0027C53.2784 8.8374 53.3288 8.70388 53.4295 8.60216C53.5303 8.50043 53.5807 8.34784 53.5807 8.14439C53.5807 7.86465 53.5744 7.56583 53.5618 7.24794C53.5492 6.93005 53.4988 6.6058 53.4107 6.27519C53.3225 5.83014 53.2784 5.4741 53.2784 5.20707C53.2784 4.94004 53.2658 4.65394 53.2406 4.34876C53.1651 4.23432 53.0328 4.11988 52.8439 4.00544C52.6676 3.891 52.4724 3.77656 52.2583 3.66212C52.0568 3.53496 51.8616 3.4078 51.6727 3.28065C51.4837 3.14077 51.3515 2.99454 51.2759 2.84195C51.1752 2.6385 51.1059 2.5177 51.0681 2.47956C51.0429 2.42869 51.0178 2.37147 50.9926 2.3079C50.9926 2.21889 51.0178 2.09173 51.0681 1.92643C51.1185 1.74841 51.213 1.64668 51.3515 1.62125C51.616 1.55767 51.8868 1.48138 52.1638 1.39237C52.4409 1.30336 52.6487 1.24614 52.7872 1.22071C52.8124 1.22071 52.8754 1.20163 52.9762 1.16348C53.0895 1.11262 53.2029 1.06176 53.3162 1.0109C53.4421 0.947318 53.5555 0.890098 53.6562 0.839235C53.7696 0.775656 53.8389 0.724794 53.864 0.686647C54.1033 0.623068 54.3237 0.553132 54.5252 0.476838C54.7393 0.400544 54.9471 0.330608 55.1487 0.267029C55.3502 0.203451 55.558 0.14623 55.7721 0.0953676C55.9988 0.0445049 56.2381 0.0127157 56.4899 0C56.6159 0 56.7229 0.00635784 56.8111 0.0190735C56.8992 0.0317892 56.9433 0.0826519 56.9433 0.171662C56.9937 0.502269 57.0252 0.826519 57.0378 1.14441C57.063 1.44959 57.0756 1.74841 57.0756 2.04087C57.0756 2.33333 57.063 2.63215 57.0378 2.93732C57.0252 3.22978 56.9937 3.51589 56.9433 3.79563C56.8426 4.06266 56.7796 4.34876 56.7544 4.65394C56.7292 4.95912 56.7166 5.26429 56.7166 5.56947L56.7355 6.56129L56.6788 7.87736C56.7292 7.97909 56.7607 8.08081 56.7733 8.18254C56.7985 8.28427 56.8111 8.41778 56.8111 8.58308C56.8111 8.8374 56.8048 9.02178 56.7922 9.13622C56.7922 9.25066 56.7733 9.33967 56.7355 9.40325L56.8678 10.624C56.8174 10.8274 56.7355 11.0372 56.6222 11.2534C56.5088 11.4568 56.4207 11.6857 56.3577 11.94C56.3577 12.0799 56.3892 12.2071 56.4522 12.3215C56.5151 12.4232 56.5592 12.5631 56.5844 12.7411C56.6348 13.237 56.66 13.7139 56.66 14.1716C56.6726 14.6294 56.6914 15.1062 56.7166 15.6021C56.6537 15.8946 56.5781 16.1553 56.4899 16.3842C56.4144 16.6003 56.3766 16.8228 56.3766 17.0517V17.3569C56.3892 17.6239 56.4081 17.8719 56.4333 18.1008C56.4585 18.3169 56.4836 18.5331 56.5088 18.7493C56.5466 18.9654 56.5781 19.1943 56.6033 19.4359C56.6285 19.6648 56.6537 19.9318 56.6788 20.237C56.6788 20.5676 56.66 20.8537 56.6222 21.0953C56.597 21.3369 56.5718 21.6294 56.5466 21.9727C56.534 22.049 56.5151 22.1571 56.4899 22.2969C56.4773 22.4368 56.4585 22.583 56.4333 22.7356C56.4207 22.8755 56.4081 23.009 56.3955 23.1362C56.3829 23.2633 56.3766 23.3523 56.3766 23.4032V23.4223C56.3892 23.4859 56.4144 23.613 56.4522 23.8038C56.4899 23.9945 56.5277 24.1916 56.5655 24.395C56.6033 24.5985 56.6411 24.7892 56.6788 24.9672C56.7166 25.1453 56.7355 25.2597 56.7355 25.3106L56.8678 25.5967H56.9055C56.9433 25.5967 56.9685 25.6157 56.9811 25.6539C56.9937 25.692 57.0126 25.7175 57.0378 25.7302C57.0882 25.781 57.1196 25.8383 57.1322 25.9018C57.1448 25.9527 57.17 26.0099 57.2078 26.0735C57.2582 26.1244 57.3275 26.1816 57.4156 26.2452C57.5164 26.296 57.6738 26.3469 57.8879 26.3978C58.1272 26.5503 58.3098 26.6266 58.4357 26.6266C58.4735 26.6266 58.505 26.6266 58.5302 26.6266C58.5554 26.6266 58.5995 26.6139 58.6624 26.5885C58.7632 26.6139 58.8828 26.633 59.0214 26.6457C59.1599 26.6584 59.3047 26.6839 59.4559 26.722C59.607 26.7474 59.7581 26.7919 59.9093 26.8555C60.0604 26.9191 60.1926 27.0081 60.306 27.1225C60.3689 27.1734 60.4067 27.2433 60.4193 27.3324C60.4319 27.4086 60.4382 27.5167 60.4382 27.6566V28.3051C60.4382 28.3941 60.4256 28.4768 60.4004 28.5531C60.3752 28.6294 60.3249 28.6802 60.2493 28.7056C60.1485 28.6802 60.0415 28.6675 59.9282 28.6675C59.8274 28.6675 59.7266 28.6675 59.6259 28.6675C59.5377 28.6675 59.4433 28.6611 59.3425 28.6484C59.2418 28.6484 59.1158 28.6357 58.9647 28.6103L58.3791 28.534C58.3539 28.534 58.2972 28.5276 58.209 28.5149C58.1335 28.5149 58.0453 28.5086 57.9446 28.4958C57.8564 28.4958 57.7682 28.4895 57.6801 28.4768C57.6045 28.4768 57.5541 28.4768 57.529 28.4768L56.6033 28.4195C56.5907 28.4195 56.5781 28.4132 56.5655 28.4005C56.5529 28.4005 56.5403 28.4005 56.5277 28.4005C56.5277 28.3878 56.5214 28.3814 56.5088 28.3814C56.2318 28.3941 55.9799 28.4132 55.7532 28.4386C55.5391 28.464 55.3313 28.4895 55.1298 28.5149C54.9409 28.5531 54.7456 28.5848 54.5441 28.6103C54.3552 28.6484 54.1411 28.6675 53.9018 28.6675C53.6122 28.6421 53.2973 28.6103 52.9573 28.5721C52.6298 28.534 52.3213 28.5149 52.0316 28.5149L51.0304 28.6103Z" fill="white"/>
<path d="M63.9898 28.4195C63.8261 28.356 63.656 28.2352 63.4797 28.0571C63.316 27.8664 63.2341 27.6439 63.2341 27.3896V24.643L63.1397 24.0517C63.253 23.6448 63.3538 23.2061 63.4419 22.7356C63.5301 22.2652 63.5742 21.8137 63.5742 21.3814C63.5742 21.2924 63.549 21.2161 63.4986 21.1525C63.4608 21.089 63.4104 21.0317 63.3475 20.9809C63.2971 20.9173 63.2467 20.8664 63.1963 20.8283C63.1586 20.7774 63.1397 20.7202 63.1397 20.6566C63.1397 20.1607 63.1523 19.6712 63.1775 19.188C63.2152 18.7048 63.2341 18.2597 63.2341 17.8528V17.3188L63.1397 16.8228C63.1397 16.4541 63.1775 16.079 63.253 15.6975C63.3286 15.316 63.3664 14.9219 63.3664 14.5149C63.3664 14.2988 63.3538 14.108 63.3286 13.9427C63.316 13.7774 63.253 13.5931 63.1397 13.3896L63.4041 11.2534L63.1775 9.9373L63.3097 7.1335L63.2341 6.27519C63.1712 6.07174 63.1523 5.84921 63.1775 5.60762C63.2026 5.36602 63.1586 5.14985 63.0452 4.95912C62.9445 4.75566 62.8185 4.57129 62.6674 4.40598C62.5163 4.24068 62.3714 4.10081 62.2329 3.98637C62.0566 3.7702 61.8488 3.62397 61.6095 3.54767C61.3702 3.47138 61.0868 3.36966 60.7594 3.2425L60.7216 2.80381C60.9483 2.52406 61.1435 2.28882 61.3072 2.09809C61.4835 1.89464 61.6536 1.72297 61.8173 1.5831C61.9936 1.44323 62.1762 1.32243 62.3651 1.22071C62.554 1.10626 62.7807 0.998181 63.0452 0.896455L63.8575 0.267029L65.9923 0C66.093 0 66.2189 0.0572206 66.3701 0.171662C66.5338 0.273387 66.6912 0.400544 66.8424 0.553132C66.9935 0.70572 67.1194 0.871024 67.2202 1.04904C67.3335 1.21435 67.3902 1.36058 67.3902 1.48773C67.3902 1.85649 67.3335 2.19981 67.2202 2.5177C67.1194 2.8356 67.0691 3.14077 67.0691 3.43323C67.0691 3.68755 67.0565 3.89736 67.0313 4.06266C67.0187 4.22796 66.9998 4.38691 66.9746 4.5395C66.962 4.69209 66.9431 4.85103 66.9179 5.01634C66.9053 5.16892 66.899 5.3533 66.899 5.56947L66.7101 7.32423V10.3378C66.7101 10.4777 66.7038 10.6049 66.6912 10.7193C66.6786 10.8338 66.6597 10.98 66.6346 11.158C66.5968 11.4886 66.5779 11.7811 66.5779 12.0354C66.5779 12.099 66.5842 12.1816 66.5968 12.2833C66.622 12.3851 66.6535 12.4868 66.6912 12.5885C66.729 12.6902 66.7794 12.7793 66.8424 12.8556C66.9053 12.9318 66.9809 12.97 67.0691 12.97C67.3083 12.97 67.5099 12.9255 67.6736 12.8365C67.8499 12.7475 68.0136 12.6394 68.1648 12.5122C68.3159 12.3851 68.4607 12.2579 68.5993 12.1308C68.7504 11.9909 68.9141 11.8764 69.0904 11.7874C69.3675 11.673 69.6761 11.5776 70.0161 11.5013C70.3561 11.425 70.7025 11.3678 71.0551 11.3297C71.4204 11.2788 71.7793 11.2407 72.1319 11.2152C72.4972 11.1898 72.8309 11.1771 73.1332 11.1771C73.2843 11.1771 73.4039 11.1962 73.4921 11.2343C73.5803 11.2597 73.6621 11.2915 73.7377 11.3297C73.8132 11.3678 73.8951 11.4123 73.9833 11.4632C74.0714 11.5013 74.1911 11.5331 74.3422 11.5586L75.0601 11.6539L75.3246 11.7874C75.5009 11.94 75.6961 12.0863 75.9102 12.2261C76.1243 12.366 76.3384 12.5122 76.5525 12.6648C76.7792 12.8047 76.9933 12.9573 77.1948 13.1226C77.4089 13.2879 77.5915 13.4659 77.7426 13.6566C78.0071 13.9872 78.2716 14.3624 78.5361 14.782C78.8005 15.1889 79.0335 15.6212 79.235 16.079C79.4491 16.5367 79.6192 17.0136 79.7451 17.5095C79.8711 17.9927 79.934 18.4695 79.934 18.94C79.8333 19.5504 79.7577 20.1607 79.7073 20.7711C79.6695 21.3814 79.5499 21.9918 79.3484 22.6021C79.1721 23.2252 78.9832 23.7465 78.7817 24.1661C78.5801 24.5858 78.3409 24.9609 78.0638 25.2915C77.7867 25.6221 77.4593 25.9336 77.0814 26.2261C76.7036 26.5185 76.2502 26.8428 75.7213 27.1988C75.5198 27.3133 75.356 27.4023 75.2301 27.4659C75.1042 27.5167 74.9845 27.5676 74.8712 27.6185C74.7704 27.6566 74.6571 27.7075 74.5311 27.771C74.4178 27.8346 74.2729 27.9363 74.0966 28.0762L73.8321 28.3051L69.0904 28.7056L67.4847 28.5149C67.3839 28.5022 67.2265 28.4895 67.0124 28.4768C66.8109 28.464 66.5905 28.445 66.3512 28.4195C66.1245 28.3941 65.8852 28.3687 65.6333 28.3433C65.394 28.3178 65.1862 28.286 65.0099 28.2479L63.9898 28.4195ZM66.5779 20.3896C66.5779 20.4913 66.5968 20.663 66.6346 20.9046C66.6723 21.1462 66.7164 21.4196 66.7668 21.7247C66.8298 22.0299 66.899 22.3478 66.9746 22.6784C67.0502 23.009 67.1257 23.3142 67.2013 23.5939C67.2895 23.8737 67.3713 24.1153 67.4469 24.3187C67.5224 24.5095 67.5917 24.6176 67.6547 24.643C67.8058 24.7574 67.9318 24.8592 68.0325 24.9482C68.1333 25.0372 68.2214 25.1262 68.297 25.2152C68.3726 25.2915 68.4544 25.3869 68.5426 25.5013C68.6307 25.603 68.7441 25.7365 68.8826 25.9018C68.9456 25.9908 69.0275 26.0799 69.1282 26.1689C69.2416 26.2452 69.3549 26.3278 69.4682 26.4168C69.5942 26.4931 69.7138 26.5758 69.8272 26.6648C69.9405 26.7411 70.035 26.8174 70.1106 26.8937H71.7919C72.0186 26.8937 72.2579 26.8873 72.5097 26.8746C72.7742 26.8619 73.0261 26.8237 73.2654 26.7601C73.5173 26.6966 73.7503 26.6012 73.9644 26.474C74.1785 26.3469 74.3485 26.1689 74.4744 25.94C74.5878 25.6857 74.6885 25.3741 74.7767 25.0054C74.8649 24.6239 75.0034 24.306 75.1923 24.0517L75.7213 23.4223C75.7213 23.3969 75.7276 23.3269 75.7402 23.2125C75.7653 23.098 75.7905 22.9645 75.8157 22.8119C75.8535 22.6593 75.8913 22.5068 75.9291 22.3542C75.9669 22.1889 75.9983 22.0426 76.0235 21.9155C76.0235 21.7629 76.0046 21.6294 75.9669 21.5149C75.9291 21.3878 75.9102 21.2543 75.9102 21.1144L76.118 20.2942C76.118 20.1925 76.1054 20.0336 76.0802 19.8174C76.0676 19.5885 76.0361 19.3342 75.9857 19.0544C75.948 18.762 75.9039 18.4632 75.8535 18.158C75.8031 17.8528 75.7402 17.5604 75.6646 17.2806C75.6016 17.0009 75.5261 16.7593 75.4379 16.5558C75.3623 16.3396 75.2805 16.1871 75.1923 16.0981L73.5677 14.4768C73.341 14.4768 73.1269 14.4069 72.9254 14.267C72.7238 14.1271 72.516 13.9809 72.3019 13.8283C72.0878 13.663 71.8674 13.5104 71.6407 13.3705C71.4266 13.2307 71.1874 13.1607 70.9229 13.1607L69.2227 13.5041H68.2781C68.1018 13.5041 67.9632 13.5549 67.8625 13.6566C67.7617 13.7584 67.6358 13.8347 67.4847 13.8855C67.4595 13.8855 67.4028 13.8982 67.3146 13.9237C67.2391 13.9491 67.1509 13.9872 67.0502 14.0381C66.962 14.089 66.8801 14.1589 66.8046 14.2479C66.7416 14.3242 66.7101 14.4132 66.7101 14.5149V16.0981C66.5716 16.1998 66.5023 16.3778 66.5023 16.6321C66.5023 16.6957 66.5149 16.7593 66.5401 16.8228C66.5653 16.8737 66.5779 16.9119 66.5779 16.9373L66.7101 18.5395L66.5779 20.3896Z" fill="white"/>
<path d="M6.26797 60.0468L5.18859 60.2368H1.34449C1.193 60.2368 1.03519 60.2178 0.871077 60.1798C0.719585 60.1418 0.574406 60.0785 0.435539 59.9899C0.309295 59.9139 0.201989 59.8125 0.113619 59.6859C0.0378729 59.5593 0 59.4073 0 59.23C0 59.0527 0.0126243 58.9007 0.0378729 58.774C0.0757458 58.6601 0.183052 58.5777 0.359793 58.5271L1.70428 58.2611C1.79265 58.2358 1.87471 58.2041 1.95046 58.1661C2.01358 58.1408 2.0767 58.1155 2.13982 58.0902C2.21557 58.0648 2.27237 58.0395 2.31025 58.0142C2.36075 58.0142 2.41755 57.9952 2.48068 57.9572C2.50592 57.9445 2.53117 57.9255 2.55642 57.9002C2.61954 57.8242 2.69529 57.6976 2.78366 57.5202C2.87203 57.3556 2.91621 57.2353 2.91621 57.1593C2.91621 57.134 2.92253 57.0453 2.93515 56.8934C2.94778 56.754 2.9604 56.5894 2.97302 56.3994C2.99827 56.2221 3.01721 56.0448 3.02983 55.8675C3.04246 55.6902 3.04877 55.5509 3.04877 55.4496V54.4237C3.04877 54.0438 3.04246 53.6639 3.02983 53.2839C3.01721 52.9167 2.97934 52.562 2.91621 52.2201L2.8026 51.8592V51.1373L2.91621 50.7383L2.89728 49.9595C2.89728 49.8202 2.90359 49.6872 2.91621 49.5605C2.94146 49.4466 2.98565 49.3389 3.04877 49.2376C2.99827 48.5537 2.9604 47.8888 2.93515 47.2429C2.92253 46.5843 2.91621 45.9195 2.91621 45.2482V44.6403L2.95409 44.1084C2.95409 44.0958 2.95409 44.0768 2.95409 44.0514C2.95409 44.0261 2.94778 43.9691 2.93515 43.8805C2.93515 43.7918 2.92884 43.6525 2.91621 43.4625C2.90359 43.2726 2.88465 43.0129 2.8594 42.6836C2.8594 42.5823 2.8594 42.4873 2.8594 42.3987C2.8594 42.31 2.87203 42.2087 2.89728 42.0947L2.91621 41.3539C2.85309 40.9866 2.80891 40.6193 2.78366 40.252C2.77103 39.8848 2.76472 39.5048 2.76472 39.1122C2.76472 38.7449 2.77103 38.3777 2.78366 38.0104C2.80891 37.6305 2.85309 37.2379 2.91621 36.8326L2.8026 36.6426C2.76472 36.6173 2.70791 36.573 2.63217 36.5096C2.56905 36.4337 2.50592 36.364 2.4428 36.3007C2.36706 36.2247 2.27869 36.1424 2.17769 36.0537C2.13982 36.0157 2.0767 35.9651 1.98833 35.9017C1.89996 35.8384 1.79896 35.7751 1.68534 35.7118C1.57173 35.6485 1.45811 35.5915 1.34449 35.5408C1.24349 35.4901 1.16775 35.4521 1.11725 35.4268C1.04151 35.4015 0.978384 35.3888 0.927886 35.3888C0.890014 35.3762 0.858453 35.3572 0.833204 35.3318C0.631215 35.1799 0.530221 35.0026 0.530221 34.7999C0.530221 34.7746 0.530221 34.7303 0.530221 34.6669C0.530221 34.591 0.542845 34.5403 0.568094 34.515C0.593342 34.477 0.612279 34.4453 0.624903 34.42C0.637527 34.382 0.6754 34.344 0.738522 34.306L1.70428 33.7171C1.74215 33.7044 1.78634 33.6918 1.83684 33.6791C1.87471 33.6664 1.91258 33.6538 1.95046 33.6411C1.98833 33.6284 2.01989 33.6221 2.04514 33.6221L2.91621 33.3562L3.40856 32.9382C3.5853 32.7229 3.80623 32.5393 4.07134 32.3873C4.34907 32.2227 4.60787 32.1404 4.84773 32.1404C5.12547 32.1404 5.34008 32.191 5.49157 32.2923C5.65569 32.381 5.78193 32.5013 5.8703 32.6533C5.95867 32.8052 6.01548 32.9636 6.04073 33.1282C6.0786 33.2928 6.11016 33.4511 6.13541 33.6031C6.17329 33.7551 6.21747 33.8817 6.26797 33.9831C6.33109 34.0717 6.41946 34.116 6.53308 34.116L8.23736 33.3562L8.69183 33.0332C8.90645 32.8812 9.12106 32.7672 9.33567 32.6913C9.56291 32.6153 9.79015 32.5583 10.0174 32.5203C10.2446 32.4823 10.4719 32.4633 10.6991 32.4633C10.939 32.4506 11.1851 32.4316 11.4376 32.4063L11.93 32.2353C12.1951 32.2353 12.416 32.2543 12.5927 32.2923C12.7821 32.3177 12.9525 32.362 13.104 32.4253C13.2555 32.4886 13.4007 32.5646 13.5396 32.6533C13.6784 32.7293 13.8426 32.8242 14.0319 32.9382C14.3728 33.0775 14.7263 33.2042 15.0924 33.3182C15.4711 33.4195 15.8246 33.5841 16.1528 33.8121L17.9518 35.7308L18.0654 35.9587C18.0906 36.0221 18.1159 36.079 18.1411 36.1297C18.179 36.1804 18.1979 36.2184 18.1979 36.2437L18.6903 37.7254L19.069 38.4283C19.069 38.5043 19.088 38.5803 19.1258 38.6563L19.2016 38.8083V39.3402C19.2142 39.4035 19.2268 39.4605 19.2394 39.5112C19.2521 39.5618 19.2647 39.6061 19.2773 39.6441C19.2899 39.6821 19.2962 39.7138 19.2962 39.7391L19.4099 40.1191C19.4225 40.2837 19.4351 40.442 19.4477 40.594C19.4604 40.7333 19.473 40.8726 19.4856 41.0119C19.4982 41.1386 19.5046 41.2525 19.5046 41.3539C19.2899 42.1517 19.0501 42.9053 18.785 43.6145C18.5199 44.3237 18.2042 45.0266 17.8381 45.7232L17.3647 46.635L17.2322 46.9959C17.1059 47.1859 16.9481 47.3569 16.7588 47.5089C16.582 47.6482 16.3863 47.7812 16.1717 47.9078C15.9571 48.0344 15.7425 48.1548 15.5279 48.2687C15.3133 48.3701 15.1113 48.484 14.9219 48.6107L14.316 49.0666C14.0887 49.2313 13.8489 49.3326 13.5964 49.3706C13.3439 49.4086 13.0725 49.4276 12.7821 49.4276H11.93C11.728 49.4276 11.5386 49.4276 11.3619 49.4276C11.1978 49.4276 11.0273 49.4276 10.8506 49.4276C10.6739 49.4149 10.4845 49.4022 10.2825 49.3896C10.0931 49.3769 9.87852 49.3579 9.63866 49.3326L9.14631 49.2376L8.82439 49.3326H7.34735C7.10748 49.5225 6.92443 49.7315 6.79819 49.9595C6.67195 50.2001 6.57726 50.4534 6.51414 50.7193C6.46364 50.9853 6.43208 51.2639 6.41946 51.5552C6.40684 51.8465 6.40052 52.1441 6.40052 52.4481V54.2338C6.40052 54.3351 6.40684 54.4807 6.41946 54.6707C6.43208 54.8607 6.44471 55.0506 6.45733 55.2406C6.48258 55.4433 6.50152 55.6206 6.51414 55.7725C6.52677 55.9245 6.53308 56.0132 6.53308 56.0385L6.89287 56.9503V57.4063L7.12011 58.3751C7.12011 58.4511 7.16429 58.4954 7.25266 58.5081C7.34103 58.5208 7.4294 58.5271 7.51777 58.5271L8.1048 58.1661H8.23736L8.55928 58.2991H9.60078C9.73965 58.2991 9.86589 58.3245 9.97951 58.3751C10.1058 58.4258 10.2446 58.5208 10.3961 58.6601C10.5602 58.7614 10.6675 58.85 10.718 58.926C10.7685 59.0147 10.7938 59.1477 10.7938 59.325L10.8127 59.5149C10.8127 59.7176 10.718 59.8949 10.5287 60.0468C10.3393 60.2115 10.1184 60.3065 9.86589 60.3318L8.16161 60.5028C7.90913 60.4014 7.64402 60.3001 7.36628 60.1988C7.10117 60.0975 6.855 60.0468 6.62776 60.0468H6.26797ZM6.26797 44.4694C6.26797 44.6467 6.27428 44.786 6.2869 44.8873C6.29953 44.9759 6.3374 45.1216 6.40052 45.3242C6.42577 45.4255 6.46996 45.5459 6.53308 45.6852C6.60882 45.8245 6.67826 45.9575 6.74138 46.0841C6.81712 46.2234 6.89918 46.3754 6.98755 46.54C6.98755 46.5654 7.01911 46.6033 7.08224 46.654C7.15798 46.7047 7.24004 46.7553 7.32841 46.806C7.41678 46.8566 7.49884 46.901 7.57458 46.939C7.66295 46.977 7.71976 46.9959 7.74501 46.9959L8.33204 47.5279L9.14631 47.7558H10.131L10.3582 47.8508C10.6234 47.8508 10.8632 47.8255 11.0778 47.7748C11.2924 47.7115 11.4881 47.6418 11.6649 47.5659C11.8542 47.4772 12.031 47.3822 12.1951 47.2809C12.3592 47.1796 12.5233 47.0846 12.6874 46.9959C12.8515 46.8566 13.0157 46.768 13.1798 46.73C13.3565 46.6793 13.5333 46.5717 13.71 46.407C13.7479 46.3817 13.7857 46.3437 13.8236 46.2931C13.8741 46.2424 13.9246 46.1917 13.9751 46.1411L14.1266 45.9511L14.2213 44.8303L14.7136 43.6145L14.8083 43.0256V42.5697L15.0545 41.8098V41.2399C14.9282 40.784 14.8525 40.3977 14.8272 40.0811C14.802 39.7518 14.7641 39.4415 14.7136 39.1502C14.6884 39.0616 14.6568 38.9919 14.6189 38.9413C14.5937 38.8906 14.5621 38.8399 14.5243 38.7893C14.4864 38.7386 14.4485 38.6816 14.4106 38.6183C14.3854 38.5423 14.3538 38.441 14.316 38.3144C14.2907 38.2257 14.2718 38.1181 14.2592 37.9914C14.2465 37.8521 14.2276 37.7128 14.2023 37.5735C14.1897 37.4342 14.1708 37.3012 14.1455 37.1745C14.1203 37.0479 14.0824 36.9339 14.0319 36.8326C13.994 36.8073 13.9183 36.7566 13.8047 36.6806C13.7037 36.592 13.5964 36.497 13.4828 36.3957C13.3818 36.2817 13.2808 36.1804 13.1798 36.0917C13.0914 35.9904 13.0346 35.9207 13.0093 35.8827L12.7821 35.4268C12.7821 35.4015 12.7569 35.3635 12.7064 35.3128C12.6559 35.2495 12.5991 35.1925 12.5359 35.1419C12.4728 35.0785 12.4034 35.0216 12.3276 34.9709C12.2519 34.9076 12.1951 34.8632 12.1572 34.8379L11.93 34.7429H10.9831L10.3582 34.534H10.0363C9.54397 34.534 9.14 34.5846 8.82439 34.6859C8.50878 34.7873 8.18055 34.9012 7.83969 35.0279L7.21479 35.3318C7.0633 35.3825 6.94337 35.4521 6.855 35.5408C6.77925 35.6295 6.71613 35.7308 6.66563 35.8448C6.61514 35.9587 6.57095 36.0854 6.53308 36.2247C6.4952 36.3513 6.45102 36.4906 6.40052 36.6426L6.0786 37.4405C6.0786 37.5798 6.09123 37.7128 6.11648 37.8394C6.15435 37.9534 6.17329 38.0801 6.17329 38.2194L6.0786 39.1502C6.0786 39.5935 6.11648 40.0051 6.19222 40.385C6.28059 40.7523 6.39421 41.1386 6.53308 41.5438V41.9428L6.40052 42.8166V43.6145L6.26797 44.0324V44.4694Z" fill="white"/>
<path d="M21.6254 49.6935C21.5876 49.6935 21.5434 49.6935 21.4929 49.6935C21.4424 49.6935 21.3856 49.6808 21.3225 49.6555H20.9248L20.6975 49.4656V48.5727L21.1331 47.8888C21.2467 47.8381 21.3793 47.8128 21.5308 47.8128C21.6822 47.8002 21.7643 47.7938 21.7769 47.7938C21.8274 47.7938 21.941 47.7875 22.1178 47.7748C22.3071 47.7495 22.4586 47.7115 22.5723 47.6608C22.8626 47.7242 23.0709 47.7558 23.1972 47.7558C23.3487 47.6418 23.4938 47.4899 23.6327 47.2999C23.7716 47.1099 23.8915 46.901 23.9925 46.673C24.1061 46.445 24.1882 46.2171 24.2387 45.9891C24.3018 45.7611 24.3333 45.5522 24.3333 45.3622V43.2536C24.3333 42.8103 24.3333 42.3797 24.3333 41.9618C24.346 41.5312 24.3712 41.2272 24.4091 41.0499C24.3712 40.708 24.346 40.3724 24.3333 40.0431C24.3207 39.7011 24.3018 39.3592 24.2765 39.0172L24.144 37.0416C24.1061 36.4463 24.0745 35.8511 24.0493 35.2558C24.0241 34.6606 24.0114 34.059 24.0114 33.4511C24.0114 33.3878 24.0177 33.3435 24.0304 33.3182C24.043 33.2802 24.0998 33.2295 24.2008 33.1662C24.1503 32.9636 24.1187 32.7799 24.1061 32.6153C24.1061 32.4506 24.1061 32.2733 24.1061 32.0834C24.1061 31.9061 24.1061 31.7288 24.1061 31.5514C24.1187 31.3615 24.1503 31.1652 24.2008 30.9625C24.0998 30.8992 24.0177 30.8042 23.9546 30.6776C23.9041 30.5509 23.8789 30.38 23.8789 30.1647C23.8789 30 23.9294 29.8671 24.0304 29.7657C24.1314 29.6644 24.1819 29.5124 24.1819 29.3098C24.1819 29.0312 24.1755 28.7336 24.1629 28.417C24.1503 28.1003 24.0998 27.7774 24.0114 27.4481C23.9231 27.0048 23.8789 26.6502 23.8789 26.3843C23.8789 26.1183 23.8662 25.8334 23.841 25.5294C23.7653 25.4154 23.6327 25.3015 23.4433 25.1875C23.2666 25.0735 23.0709 24.9595 22.8563 24.8455C22.6543 24.7189 22.4586 24.5922 22.2693 24.4656C22.0799 24.3263 21.9474 24.1806 21.8716 24.0287C21.7706 23.826 21.7012 23.7057 21.6633 23.6677C21.6381 23.6171 21.6128 23.5601 21.5876 23.4967C21.5876 23.4081 21.6128 23.2814 21.6633 23.1168C21.7138 22.9395 21.8085 22.8382 21.9474 22.8129C22.2125 22.7495 22.4839 22.6735 22.7616 22.5849C23.0394 22.4962 23.2477 22.4393 23.3865 22.4139C23.4118 22.4139 23.4749 22.3949 23.5759 22.3569C23.6895 22.3063 23.8031 22.2556 23.9167 22.205C24.043 22.1416 24.1566 22.0846 24.2576 22.034C24.3712 21.9707 24.4407 21.92 24.4659 21.882C24.7058 21.8187 24.9267 21.749 25.1287 21.673C25.3433 21.5971 25.5516 21.5274 25.7536 21.4641C25.9556 21.4008 26.1639 21.3438 26.3785 21.2931C26.6057 21.2424 26.8456 21.2108 27.0981 21.1981C27.2243 21.1981 27.3316 21.2045 27.42 21.2171C27.5084 21.2298 27.5525 21.2804 27.5525 21.3691C27.603 21.6984 27.6346 22.0213 27.6472 22.3379C27.6725 22.6419 27.6851 22.9395 27.6851 23.2308C27.6851 23.5221 27.6725 23.8197 27.6472 24.1236C27.6346 24.4149 27.603 24.6999 27.5525 24.9785C27.4516 25.2445 27.3884 25.5294 27.3632 25.8334C27.3379 26.1373 27.3253 26.4413 27.3253 26.7452L27.3442 27.7331L27.2874 29.0439C27.3379 29.1452 27.3695 29.2465 27.3821 29.3478C27.4074 29.4491 27.42 29.5821 27.42 29.7467C27.42 30 27.4137 30.1837 27.4011 30.2976C27.4011 30.4116 27.3821 30.5003 27.3442 30.5636L27.4768 31.7794C27.4263 31.982 27.3442 32.191 27.2306 32.4063C27.117 32.6089 27.0286 32.8369 26.9655 33.0902C26.9655 33.2295 26.9971 33.3562 27.0602 33.4701C27.1233 33.5715 27.1675 33.7108 27.1928 33.8881C27.2433 34.382 27.2685 34.8569 27.2685 35.3128C27.2811 35.7688 27.3001 36.2437 27.3253 36.7376C27.2622 37.0289 27.1864 37.2885 27.0981 37.5165C27.0223 37.7318 26.9845 37.9534 26.9845 38.1814V38.4853C26.9971 38.7513 27.016 38.9982 27.0413 39.2262C27.0665 39.4415 27.0918 39.6568 27.117 39.8721C27.1549 40.0874 27.1864 40.3154 27.2117 40.556C27.2369 40.784 27.2622 41.0499 27.2874 41.3539C27.2874 41.6831 27.2685 41.9681 27.2306 42.2087C27.2054 42.4494 27.1801 42.7406 27.1549 43.0826C27.1423 43.1586 27.1233 43.2662 27.0981 43.4055C27.0854 43.5448 27.0665 43.6905 27.0413 43.8425C27.0286 43.9818 27.016 44.1147 27.0034 44.2414C26.9908 44.368 26.9845 44.4567 26.9845 44.5074V44.5263C26.9971 44.5897 27.0223 44.7163 27.0602 44.9063C27.0981 45.0963 27.1359 45.2926 27.1738 45.4952C27.2117 45.6978 27.2496 45.8878 27.2874 46.0651C27.3253 46.2424 27.3442 46.3564 27.3442 46.407L27.4768 46.692H27.5147C27.5525 46.692 27.5778 46.711 27.5904 46.749C27.603 46.787 27.622 46.8123 27.6472 46.825C27.6977 46.8756 27.7293 46.9326 27.7419 46.9959C27.7545 47.0466 27.7798 47.1036 27.8177 47.1669C27.8682 47.2176 27.9376 47.2746 28.026 47.3379C28.127 47.3886 28.2848 47.4392 28.4994 47.4899C28.7392 47.6418 28.9223 47.7178 29.0485 47.7178C29.0864 47.7178 29.118 47.7178 29.1432 47.7178C29.1685 47.7178 29.2126 47.7052 29.2758 47.6798C29.3768 47.7052 29.4967 47.7242 29.6356 47.7368C29.7744 47.7495 29.9196 47.7748 30.0711 47.8128C30.2226 47.8381 30.3741 47.8825 30.5256 47.9458C30.6771 48.0091 30.8096 48.0978 30.9232 48.2118C30.9864 48.2624 31.0242 48.3321 31.0369 48.4207C31.0495 48.4967 31.0558 48.6044 31.0558 48.7437V49.3896C31.0558 49.4782 31.0432 49.5605 31.0179 49.6365C30.9927 49.7125 30.9422 49.7632 30.8664 49.7885C30.7654 49.7632 30.6581 49.7505 30.5445 49.7505C30.4435 49.7505 30.3425 49.7505 30.2415 49.7505C30.1532 49.7505 30.0585 49.7442 29.9575 49.7315C29.8565 49.7315 29.7302 49.7188 29.5787 49.6935L28.9917 49.6175C28.9665 49.6175 28.9097 49.6112 28.8213 49.5985C28.7455 49.5985 28.6572 49.5922 28.5562 49.5795C28.4678 49.5795 28.3794 49.5732 28.2911 49.5605C28.2153 49.5605 28.1648 49.5605 28.1396 49.5605L27.2117 49.5035C27.1991 49.5035 27.1864 49.4972 27.1738 49.4845C27.1612 49.4845 27.1486 49.4845 27.1359 49.4845C27.1359 49.4719 27.1296 49.4656 27.117 49.4656C26.8393 49.4782 26.5868 49.4972 26.3595 49.5225C26.1449 49.5479 25.9366 49.5732 25.7346 49.5985C25.5453 49.6365 25.3496 49.6682 25.1476 49.6935C24.9583 49.7315 24.7436 49.7505 24.5038 49.7505C24.2134 49.7252 23.8978 49.6935 23.557 49.6555C23.2287 49.6175 22.9194 49.5985 22.6291 49.5985L21.6254 49.6935Z" fill="white"/>
<path d="M40.4672 47.3189C40.4167 47.3442 40.3347 47.4202 40.221 47.5469C40.12 47.6608 40.038 47.7178 39.9749 47.7178L39.2553 48.0788C39.23 48.0914 39.1858 48.1231 39.1227 48.1738C39.0722 48.2118 39.0091 48.2624 38.9334 48.3257C38.8702 48.3764 38.8134 48.4271 38.7629 48.4777C38.7124 48.5157 38.6809 48.5347 38.6682 48.5347C38.643 48.5474 38.5925 48.56 38.5168 48.5727C38.4536 48.5854 38.3779 48.598 38.2895 48.6107C38.2138 48.6234 38.138 48.636 38.0623 48.6487C37.9992 48.6487 37.9487 48.6487 37.9108 48.6487C37.8098 48.674 37.7151 48.7183 37.6267 48.7817C37.551 48.845 37.4689 48.921 37.3806 49.0096C37.3048 49.0856 37.2165 49.1679 37.1155 49.2566C37.0145 49.3326 36.9008 49.4022 36.7746 49.4656H34.9756C34.9125 49.4656 34.8241 49.4529 34.7105 49.4276C34.6095 49.4022 34.4959 49.3706 34.3697 49.3326C34.2561 49.2946 34.1424 49.2503 34.0288 49.1996C33.9152 49.1489 33.8268 49.1046 33.7637 49.0666C33.7637 49.0413 33.7258 48.9843 33.6501 48.8956C33.587 48.7943 33.5491 48.712 33.5365 48.6487C33.5112 48.6234 33.4923 48.5917 33.4797 48.5537C33.4418 48.5157 33.4228 48.4777 33.4228 48.4397L32.9116 47.9458C32.8106 47.7432 32.7222 47.4899 32.6465 47.1859C32.5833 46.8693 32.5518 46.6097 32.5518 46.407L32.6843 46.0081L32.5518 45.6092V45.3812C32.5518 45.3179 32.5644 45.2356 32.5896 45.1343C32.6275 45.0203 32.6654 44.9126 32.7033 44.8113C32.7411 44.6973 32.779 44.596 32.8169 44.5074C32.8548 44.406 32.8863 44.3364 32.9116 44.2984C32.9242 44.2857 32.9684 44.2414 33.0441 44.1654C33.1325 44.0768 33.2272 43.9818 33.3282 43.8805C33.4292 43.7665 33.5175 43.6652 33.5933 43.5765C33.6816 43.4879 33.7385 43.4245 33.7637 43.3865C33.7763 43.3865 33.8205 43.3422 33.8963 43.2536C33.9846 43.1649 34.0288 43.1079 34.0288 43.0826L34.0667 43.0066C34.0793 42.9813 34.0856 42.9559 34.0856 42.9306C34.3002 42.7913 34.5085 42.6457 34.7105 42.4937C34.9125 42.329 35.1398 42.1897 35.3922 42.0757C35.4049 42.0631 35.4932 42.0251 35.6573 41.9618C35.8341 41.8858 36.0235 41.8098 36.2254 41.7338C36.4401 41.6451 36.6484 41.5692 36.8503 41.5058C37.0523 41.4425 37.2038 41.3982 37.3048 41.3729C37.4311 41.3095 37.5636 41.2272 37.7025 41.1259C37.8414 41.0246 37.9739 40.9296 38.1002 40.8409C38.239 40.7523 38.3653 40.6763 38.4789 40.613C38.5925 40.537 38.6872 40.499 38.7629 40.499H39.2553C39.2679 40.499 39.3058 40.48 39.3689 40.442C39.3941 40.4293 39.4257 40.4103 39.4636 40.385C39.5141 40.3724 39.634 40.3534 39.8234 40.328C40.0254 40.3027 40.1579 40.29 40.221 40.29L40.4672 39.9671C40.5556 39.9164 40.6439 39.8784 40.7323 39.8531C40.8207 39.8151 40.9027 39.7771 40.9785 39.7391C41.0542 39.7011 41.1174 39.6505 41.1679 39.5871C41.231 39.5112 41.2815 39.4098 41.3193 39.2832C41.4077 39.0172 41.4645 38.7386 41.4898 38.4473C41.5277 38.1434 41.5466 37.8584 41.5466 37.5925V37.1745C41.5466 37.1492 41.5087 37.0796 41.433 36.9656C41.3572 36.8516 41.3193 36.7693 41.3193 36.7186L41.0921 35.7498L40.6755 35.2369L40.4672 34.8379C40.4167 34.8126 40.3662 34.7493 40.3157 34.6479C40.2652 34.5466 40.2337 34.4643 40.221 34.401C40.1958 34.325 40.1011 34.2553 39.937 34.192C39.7729 34.116 39.5898 34.0527 39.3878 34.0021C39.1858 33.9387 38.9839 33.8944 38.7819 33.8691C38.5925 33.8311 38.4599 33.8121 38.3842 33.8121C38.3589 33.8121 38.258 33.8121 38.0812 33.8121C37.9171 33.7994 37.7782 33.7931 37.6646 33.7931C37.551 33.7931 37.3932 33.8057 37.1912 33.8311C37.0018 33.8437 36.8188 33.8817 36.642 33.9451C36.4653 33.9957 36.3075 34.0717 36.1686 34.173C36.0424 34.2743 35.9793 34.4073 35.9793 34.572V34.7429C35.9919 34.7683 36.0171 34.8253 36.055 34.9139C36.0929 34.9899 36.1308 35.0785 36.1686 35.1799C36.2065 35.2685 36.2381 35.3572 36.2633 35.4458C36.3012 35.5218 36.3201 35.5725 36.3201 35.5978C36.3201 35.6485 36.3012 35.7244 36.2633 35.8258C36.2381 35.9144 36.2128 36.0094 36.1876 36.1107C36.0992 36.516 35.9793 36.8263 35.8278 37.0416C35.6763 37.2569 35.4364 37.4658 35.1082 37.6685L34.881 37.8394C34.8305 37.8774 34.7863 37.9154 34.7484 37.9534H33.3092C33.1956 37.9534 33.1009 37.9091 33.0252 37.8204C32.9494 37.7318 32.8863 37.6305 32.8358 37.5165C32.7853 37.3898 32.7474 37.2695 32.7222 37.1555C32.697 37.0289 32.6843 36.9339 32.6843 36.8706C32.6843 36.7946 32.697 36.6933 32.7222 36.5666C32.7474 36.44 32.7853 36.3197 32.8358 36.2057C32.8863 36.079 32.9368 35.9651 32.9873 35.8637C33.0504 35.7498 33.1136 35.6611 33.1767 35.5978C33.2145 35.5091 33.2587 35.4332 33.3092 35.3698C33.3345 35.3065 33.3597 35.2558 33.385 35.2179C33.4228 35.1799 33.4481 35.1545 33.4607 35.1419L33.7637 34.8379C34.0414 34.6606 34.275 34.477 34.4644 34.287C34.6537 34.097 34.8746 33.8944 35.1271 33.6791L36.4527 32.8052C36.5789 32.6913 36.6925 32.6089 36.7935 32.5583C36.9072 32.495 37.0208 32.4443 37.1344 32.4063C37.248 32.3683 37.3616 32.3367 37.4752 32.3113C37.6015 32.286 37.7467 32.2417 37.9108 32.1783C37.9234 32.1783 37.955 32.1657 38.0055 32.1404C38.0686 32.115 38.1317 32.0897 38.1948 32.0644C38.258 32.0264 38.3211 31.9947 38.3842 31.9694C38.4473 31.944 38.4915 31.9251 38.5168 31.9124C38.5799 31.8997 38.6998 31.8744 38.8765 31.8364C39.0659 31.7984 39.2616 31.7604 39.4636 31.7224C39.6782 31.6844 39.8802 31.6528 40.0695 31.6274C40.2589 31.6021 40.3915 31.5894 40.4672 31.5894C40.5303 31.5894 40.5871 31.6148 40.6376 31.6654C40.7008 31.7034 40.7449 31.7224 40.7702 31.7224C40.8081 31.7224 40.8649 31.7288 40.9406 31.7414C41.0164 31.7414 41.0921 31.7477 41.1679 31.7604C41.2562 31.7731 41.332 31.7857 41.3951 31.7984C41.4708 31.7984 41.5213 31.8047 41.5466 31.8174C41.6223 31.8427 41.7233 31.8807 41.8496 31.9314C41.9758 31.9694 42.1021 32.0137 42.2283 32.0644C42.3545 32.115 42.4682 32.1593 42.5692 32.1973C42.6702 32.2353 42.7333 32.2607 42.7585 32.2733C42.7711 32.286 42.8027 32.3177 42.8532 32.3683C42.9037 32.419 42.9605 32.4823 43.0236 32.5583C43.0994 32.6216 43.1688 32.6849 43.2319 32.7483C43.2951 32.8116 43.3392 32.8622 43.3645 32.9002C43.5034 33.1029 43.6422 33.2865 43.7811 33.4511C43.9326 33.6158 44.0399 33.8057 44.103 34.021C44.1661 34.1477 44.2103 34.287 44.2356 34.439C44.2734 34.5783 44.305 34.7176 44.3302 34.8569C44.3681 34.9962 44.4123 35.1292 44.4628 35.2558C44.5133 35.3825 44.5954 35.4965 44.709 35.5978V36.7756C44.709 37.6115 44.6774 38.4347 44.6143 39.2452C44.5638 40.0431 44.5259 40.8663 44.5007 41.7148C44.4502 41.8414 44.406 41.9681 44.3681 42.0947C44.3302 42.2087 44.3113 42.3417 44.3113 42.4937C44.3113 42.6077 44.3239 42.7343 44.3492 42.8736C44.3871 43.0129 44.406 43.1142 44.406 43.1776L44.2356 43.5385C44.2229 43.5892 44.2166 43.6398 44.2166 43.6905V43.8994C44.2166 44.0894 44.2229 44.2921 44.2356 44.5074C44.2482 44.7227 44.2797 44.9379 44.3302 45.1532C44.3807 45.3685 44.4502 45.5712 44.5385 45.7611C44.6395 45.9511 44.7784 46.1094 44.9552 46.2361C45.0183 46.2867 45.1003 46.3627 45.2013 46.464C45.3149 46.5527 45.397 46.597 45.4475 46.597H45.5232C45.6495 46.597 45.7947 46.578 45.9588 46.54C46.1229 46.4894 46.2933 46.4387 46.4701 46.388C46.6468 46.3247 46.8235 46.2677 47.0003 46.2171C47.1897 46.1664 47.3727 46.1411 47.5494 46.1411C47.7893 46.1411 47.9092 46.2171 47.9092 46.3691C47.9092 46.7743 47.8272 47.1669 47.6631 47.5469C47.5116 47.9268 47.297 48.2687 47.0192 48.5727C46.7415 48.864 46.4196 49.1046 46.0535 49.2946C45.6874 49.4719 45.2897 49.5605 44.8605 49.5605C44.4312 49.5605 44.0146 49.5415 43.6107 49.5035C43.2067 49.4529 42.7648 49.3389 42.2851 49.1616L42.1526 49.0666C42.1273 49.0413 42.0642 48.9653 41.9632 48.8387C41.8748 48.6993 41.7738 48.5537 41.6602 48.4017C41.5592 48.2497 41.4645 48.1104 41.3762 47.9838C41.2878 47.8445 41.2373 47.7558 41.2247 47.7178L40.7702 47.3189H40.6376H40.4672ZM36.1876 44.4694C36.1876 44.672 36.2191 44.9063 36.2823 45.1722C36.358 45.4382 36.4653 45.6915 36.6042 45.9321C36.743 46.1601 36.9135 46.3564 37.1155 46.521C37.3174 46.6857 37.5447 46.768 37.7972 46.768C37.8477 46.768 37.8919 46.7617 37.9297 46.749C37.9676 46.7363 38.0749 46.6857 38.2516 46.597L39.9749 46.445C40.0127 46.4197 40.0695 46.3691 40.1453 46.2931C40.2337 46.2044 40.3157 46.1158 40.3915 46.0271C40.4798 45.9385 40.5556 45.8561 40.6187 45.7801C40.6944 45.7042 40.7449 45.6472 40.7702 45.6092C40.7828 45.6092 40.8018 45.5712 40.827 45.4952C40.8649 45.4192 40.9091 45.3242 40.9596 45.2102C41.0101 45.0963 41.0542 44.9759 41.0921 44.8493C41.1426 44.7227 41.1868 44.6087 41.2247 44.5074C41.2499 44.444 41.2689 44.349 41.2815 44.2224C41.3067 44.0958 41.3193 44.0261 41.3193 44.0134C41.3067 43.8741 41.2941 43.7348 41.2815 43.5955C41.2689 43.4562 41.2625 43.3169 41.2625 43.1776C41.2625 43.0509 41.2689 42.9369 41.2815 42.8356C41.2941 42.7216 41.3067 42.6077 41.3193 42.4937L41.4519 42.0757V41.7338C41.4519 41.5185 41.3825 41.3222 41.2436 41.1449C41.1047 40.9676 40.9027 40.8789 40.6376 40.8789C40.423 40.8789 40.24 40.9296 40.0885 41.0309C39.9496 41.1196 39.7855 41.2335 39.5961 41.3729C39.533 41.4109 39.4068 41.4805 39.2174 41.5818C39.028 41.6705 38.826 41.7655 38.6114 41.8668C38.4094 41.9554 38.2138 42.0441 38.0244 42.1327C37.8477 42.2214 37.7277 42.2784 37.6646 42.3037L37.3048 42.4937C37.2796 42.4937 37.2291 42.5063 37.1533 42.5317C37.0776 42.557 37.0397 42.576 37.0397 42.5887L36.7746 43.0826L36.3201 43.5385C36.257 43.6778 36.2191 43.8425 36.2065 44.0324C36.1939 44.2097 36.1876 44.3554 36.1876 44.4694Z" fill="white"/>
<path d="M52.1321 49.4276C51.7912 49.5162 51.4567 49.5732 51.1284 49.5985C50.8002 49.6365 50.4593 49.6555 50.1059 49.6555L49.6135 49.6935C49.462 49.6935 49.3673 49.6682 49.3295 49.6175C49.2411 49.5035 49.159 49.3832 49.0833 49.2566C49.0076 49.1173 48.9697 48.9463 48.9697 48.7437C48.9697 48.6044 49.0076 48.4714 49.0833 48.3447C49.159 48.2181 49.2411 48.1294 49.3295 48.0788C49.4683 48.0281 49.5946 48.0028 49.7082 48.0028C49.8218 47.9901 49.9354 47.9838 50.0491 47.9838C50.1627 47.9838 50.27 47.9775 50.371 47.9648C50.472 47.9395 50.5793 47.9141 50.6929 47.8888C50.9833 47.7748 51.2105 47.6482 51.3746 47.5089C51.5387 47.3696 51.665 47.2239 51.7533 47.0719C51.8417 46.9073 51.8922 46.7427 51.9048 46.578C51.9301 46.4134 51.9427 46.2487 51.9427 46.0841L51.8859 45.0583C51.8606 45.0329 51.8291 44.9823 51.7912 44.9063C51.7533 44.8176 51.7155 44.7606 51.6776 44.7353L51.5829 44.4314C51.5829 44.3047 51.6334 44.2097 51.7344 44.1464C51.8354 44.0831 51.8859 43.9628 51.8859 43.7855L51.7533 42.8546C51.7533 42.652 51.766 42.4494 51.7912 42.2467C51.8165 42.0314 51.8985 41.8415 52.0374 41.6768V40.366L51.8859 39.9671L52.1321 39.1692V38.6563C52.1321 38.3397 52.1068 38.0167 52.0563 37.6875C52.0058 37.3582 51.9175 37.0542 51.7912 36.7756C51.6776 36.4843 51.5135 36.2184 51.2989 35.9777C51.0969 35.7371 50.8444 35.5408 50.5414 35.3888L49.6135 34.8949C49.5125 34.8696 49.4178 34.7936 49.3295 34.6669C49.2411 34.5403 49.1843 34.42 49.159 34.306C49.1843 34.2427 49.2285 34.154 49.2916 34.04C49.3547 33.9261 49.4242 33.8184 49.4999 33.7171C49.5883 33.6031 49.683 33.5081 49.7839 33.4321C49.8976 33.3435 50.0049 33.2992 50.1059 33.2992H51.0527C51.0653 33.2992 51.1032 33.2802 51.1663 33.2422C51.2294 33.2042 51.2926 33.1662 51.3557 33.1282C51.4188 33.0775 51.4819 33.0332 51.545 32.9952C51.6082 32.9446 51.6523 32.9129 51.6776 32.9002C51.6902 32.8876 51.7281 32.8686 51.7912 32.8432C51.8165 32.8306 51.848 32.8179 51.8859 32.8052H52.738C52.7507 32.7926 52.7759 32.7673 52.8138 32.7293C52.8643 32.6913 52.9211 32.6469 52.9842 32.5963C53.0473 32.5456 53.1168 32.4823 53.1925 32.4063C53.2178 32.381 53.2809 32.3683 53.3819 32.3683C53.4829 32.3683 53.5839 32.3683 53.6849 32.3683C53.7354 32.3683 53.8111 32.381 53.9121 32.4063C54.0257 32.419 54.133 32.4506 54.234 32.5013C54.3476 32.552 54.4423 32.6153 54.5181 32.6913C54.5938 32.7546 54.6317 32.8369 54.6317 32.9382C54.6317 32.9509 54.6254 32.9572 54.6127 32.9572C54.6127 32.9572 54.6127 32.9636 54.6127 32.9762L54.5938 32.9952C54.5938 33.0205 54.5686 33.1029 54.5181 33.2422C54.4802 33.3815 54.4549 33.4638 54.4423 33.4891V33.6791C54.4423 33.7044 54.4613 33.7488 54.4991 33.8121C54.537 33.8627 54.5749 33.9197 54.6127 33.9831C54.6506 34.0337 54.6822 34.0844 54.7074 34.135C54.7453 34.173 54.7642 34.1984 54.7642 34.211L55.1619 34.8949C55.1871 34.9962 55.2629 35.0595 55.3891 35.0849C55.5154 35.0975 55.6227 35.1039 55.7111 35.1039C55.8878 35.1039 56.0519 35.0342 56.2034 34.8949C56.3549 34.7429 56.4875 34.6163 56.6011 34.515L57.1881 33.6791L57.226 33.6411C57.2638 33.6031 57.2828 33.5841 57.2828 33.5841C57.308 33.5841 57.3775 33.5588 57.4911 33.5081C57.6047 33.4575 57.6804 33.4195 57.7183 33.3941C57.7309 33.3815 57.7751 33.3308 57.8509 33.2422C57.9266 33.1535 58.0087 33.0585 58.0971 32.9572C58.1854 32.8559 58.2675 32.7672 58.3432 32.6913C58.419 32.6026 58.4695 32.552 58.4947 32.5393C58.5073 32.5266 58.5515 32.5076 58.6273 32.4823C58.7156 32.457 58.804 32.4316 58.8924 32.4063C58.9934 32.381 59.0817 32.362 59.1575 32.3493C59.2459 32.324 59.2964 32.3113 59.309 32.3113C59.4731 32.248 59.5993 32.1847 59.6877 32.1214C59.7761 32.058 59.8581 32.0074 59.9339 31.9694C60.0223 31.9187 60.1233 31.8807 60.2369 31.8554C60.3505 31.8301 60.5146 31.8174 60.7292 31.8174H61.1079L61.9033 32.2163C61.9159 32.2163 61.9538 32.2227 62.0169 32.2353C62.08 32.2353 62.1495 32.2417 62.2252 32.2543C62.3009 32.267 62.3704 32.2797 62.4335 32.2923C62.4966 32.2923 62.5408 32.2987 62.5661 32.3113C62.6166 32.3113 62.7112 32.324 62.8501 32.3493C63.0016 32.362 63.0773 32.381 63.0773 32.4063C63.1026 32.4063 63.172 32.4443 63.2856 32.5203C63.3993 32.5836 63.475 32.6469 63.5129 32.7103C63.5255 32.7103 63.5571 32.6913 63.6076 32.6533C63.6581 32.6153 63.7022 32.5963 63.7401 32.5963C63.9169 32.6596 64.0873 32.7736 64.2514 32.9382C64.4155 33.1029 64.5481 33.2422 64.6491 33.3562C64.7122 33.4321 64.7879 33.5398 64.8763 33.6791C64.9773 33.8057 65.072 33.9324 65.1604 34.059C65.2487 34.1857 65.3245 34.2997 65.3876 34.401C65.4633 34.4896 65.5012 34.534 65.5012 34.534C65.5012 34.5466 65.5075 34.61 65.5201 34.7239C65.5454 34.8379 65.5706 34.9772 65.5959 35.1419C65.6211 35.2938 65.6464 35.4521 65.6716 35.6168C65.6969 35.7814 65.7158 35.9144 65.7284 36.0157L65.5959 38.0294L65.861 39.7391C65.861 39.9418 65.8421 40.0937 65.8042 40.195C65.7663 40.2964 65.7221 40.3787 65.6716 40.442C65.6211 40.5053 65.577 40.5687 65.5391 40.632C65.5012 40.6826 65.4823 40.765 65.4823 40.8789C65.4823 41.0562 65.5138 41.2082 65.577 41.3349C65.6527 41.4615 65.7032 41.5945 65.7284 41.7338C65.7284 41.7591 65.7348 41.8288 65.7474 41.9428C65.76 42.0567 65.7726 42.1961 65.7853 42.3607C65.7979 42.5127 65.8105 42.671 65.8231 42.8356C65.8358 42.9876 65.8421 43.1142 65.8421 43.2156V44.7543C65.7537 44.9316 65.6969 45.0709 65.6716 45.1722C65.6464 45.2609 65.6338 45.3749 65.6338 45.5142L65.5959 46.502L65.6716 47.3189C65.6716 47.3569 65.6779 47.4076 65.6906 47.4709C65.7158 47.5215 65.7411 47.5595 65.7663 47.5849C65.8547 47.6482 66.0125 47.6988 66.2397 47.7368C66.4796 47.7748 66.7068 47.8698 66.9214 48.0218L67.0729 48.1738C67.1108 48.3511 67.1929 48.503 67.3191 48.6297C67.4453 48.7563 67.5085 48.8893 67.5085 49.0286C67.5085 49.1679 67.4895 49.3072 67.4517 49.4466C67.4264 49.5859 67.3254 49.6555 67.1487 49.6555H67.0729C66.8205 49.6808 66.5869 49.6998 66.3723 49.7125C66.1577 49.7378 65.9241 49.7505 65.6716 49.7505C65.558 49.7505 65.4318 49.7442 65.2929 49.7315C65.154 49.7315 65.0152 49.7188 64.8763 49.6935C64.6491 49.6682 64.4281 49.6492 64.2135 49.6365C64.0115 49.6239 63.8095 49.6175 63.6076 49.6175C63.3298 49.6175 63.0521 49.6239 62.7744 49.6365C62.5092 49.6492 62.2315 49.6682 61.9412 49.6935C61.878 49.6682 61.796 49.6492 61.695 49.6365C61.6066 49.6239 61.5119 49.6175 61.4109 49.6175C61.2342 49.6175 61.0638 49.6049 60.8996 49.5795C60.7355 49.5669 60.5777 49.5605 60.4262 49.5605H59.9339C59.7571 49.5605 59.6372 49.4782 59.5741 49.3136C59.511 49.1489 59.4794 48.9273 59.4794 48.6487C59.4794 48.4714 59.5299 48.3004 59.6309 48.1358C59.7319 47.9711 59.9086 47.8761 60.1611 47.8508L61.4109 47.6798C61.5877 47.6672 61.6887 47.5912 61.7139 47.4519C61.7518 47.2999 61.7834 47.1796 61.8086 47.0909L61.9033 46.901C61.9917 46.749 62.0548 46.6287 62.0926 46.54C62.1305 46.4387 62.1558 46.3501 62.1684 46.2741C62.1936 46.1854 62.2063 46.0904 62.2063 45.9891C62.2189 45.8878 62.2378 45.7548 62.2631 45.5902L62.3578 45.1912L62.2631 44.6973V43.6145L62.1305 42.5887L62.3578 41.7148C62.3325 41.4995 62.3136 41.2905 62.3009 41.0879C62.3009 40.8726 62.3009 40.651 62.3009 40.423C62.3009 40.2077 62.3009 39.9924 62.3009 39.7771C62.3136 39.5492 62.3325 39.3275 62.3578 39.1122C62.4083 38.9982 62.4335 38.9033 62.4335 38.8273C62.4461 38.7386 62.4524 38.6056 62.4524 38.4283C62.4398 38.403 62.383 38.3334 62.282 38.2194C62.181 38.0927 62.1305 38.0167 62.1305 37.9914C62.1053 37.9534 62.0737 37.8711 62.0358 37.7444C62.0106 37.6051 61.979 37.4595 61.9412 37.3075C61.9159 37.1555 61.8907 37.0099 61.8654 36.8706C61.8402 36.7313 61.8212 36.6426 61.8086 36.6046C61.796 36.592 61.7581 36.554 61.695 36.4906C61.6445 36.4273 61.5877 36.364 61.5246 36.3007C61.4614 36.2374 61.3983 36.1804 61.3352 36.1297C61.2847 36.0664 61.2531 36.0284 61.2405 36.0157C61.2405 36.0031 61.2279 35.9461 61.2026 35.8448C61.1774 35.7434 61.1458 35.6928 61.1079 35.6928C61.0827 35.6548 61.0511 35.6041 61.0133 35.5408C60.9754 35.4648 60.9438 35.4142 60.9186 35.3888C60.8807 35.3762 60.805 35.3572 60.6913 35.3318C60.5777 35.2938 60.4578 35.2622 60.3316 35.2369C60.2179 35.2115 60.1043 35.1862 59.9907 35.1609C59.8897 35.1355 59.8203 35.1165 59.7824 35.1039H59.5362C58.804 35.1039 58.1602 35.2052 57.6047 35.4078C57.0619 35.5978 56.519 35.9334 55.9762 36.4147C55.9257 36.4527 55.8562 36.516 55.7679 36.6046C55.6795 36.6933 55.5911 36.7819 55.5028 36.8706C55.4144 36.9592 55.3323 37.0416 55.2566 37.1175C55.1935 37.1809 55.1619 37.2189 55.1619 37.2315C55.1493 37.2442 55.1367 37.2885 55.124 37.3645C55.1114 37.4405 55.0988 37.5228 55.0862 37.6115C55.0735 37.7001 55.0609 37.7824 55.0483 37.8584C55.0483 37.9344 55.0483 37.9787 55.0483 37.9914C54.9978 38.1687 54.9473 38.3397 54.8968 38.5043C54.8463 38.669 54.821 38.8589 54.821 39.0742C54.821 39.4415 54.84 39.7581 54.8779 40.0241C54.9283 40.29 54.9536 40.5877 54.9536 40.9169C54.9536 41.1196 54.922 41.3032 54.8589 41.4678C54.7958 41.6198 54.7642 41.8414 54.7642 42.1327L54.9536 43.4815L54.7642 44.4314V44.6973C54.7895 44.7227 54.8147 44.805 54.84 44.9443C54.8779 45.0836 54.8968 45.1659 54.8968 45.1912V46.407L54.9536 46.806C54.9662 46.844 55.0041 46.8946 55.0672 46.958C55.1303 47.0086 55.1998 47.0656 55.2755 47.1289C55.3513 47.1796 55.4207 47.2302 55.4838 47.2809C55.5469 47.3189 55.5911 47.3442 55.6164 47.3569C55.6416 47.3822 55.6921 47.4139 55.7679 47.4519C55.8562 47.4772 55.9509 47.5089 56.0519 47.5469C56.1529 47.5722 56.2476 47.5975 56.336 47.6228C56.437 47.6482 56.5127 47.6672 56.5632 47.6798C56.6642 47.7305 56.7526 47.7622 56.8283 47.7748C56.9041 47.7875 56.9735 47.8002 57.0366 47.8128C57.1124 47.8128 57.1755 47.8255 57.226 47.8508C57.2891 47.8761 57.3522 47.9331 57.4153 48.0218C57.4532 48.0598 57.4974 48.0851 57.5479 48.0978C57.5984 48.0978 57.6426 48.1104 57.6805 48.1358C57.7309 48.1484 57.7688 48.1738 57.7941 48.2118C57.8193 48.2497 57.8319 48.3131 57.8319 48.4017L57.8698 48.8387C57.8698 48.94 57.8509 49.0286 57.813 49.1046C57.7751 49.1679 57.6868 49.2439 57.5479 49.3326C57.4343 49.3959 57.3396 49.4719 57.2638 49.5605C57.2007 49.6492 57.0997 49.6935 56.9609 49.6935C56.822 49.6935 56.6831 49.7188 56.5443 49.7695C56.4054 49.8328 56.3044 49.8645 56.2413 49.8645H56.014C55.4838 49.7758 54.9284 49.6745 54.3476 49.5605C53.7795 49.4339 53.2051 49.3706 52.6244 49.3706L52.1321 49.4276Z" fill="white"/>
<path d="M69.8566 41.2399C69.8566 41.1766 69.8692 41.0562 69.8945 40.8789C69.9197 40.689 69.945 40.4927 69.9702 40.29C70.0081 40.0747 70.0333 39.8721 70.046 39.6821C70.0712 39.4922 70.0838 39.3655 70.0838 39.3022C70.1343 38.6943 70.2669 38.0737 70.4815 37.4405C70.7087 36.8073 70.9928 36.1994 71.3336 35.6168C71.6745 35.0216 72.0658 34.477 72.5077 33.9831C72.9622 33.4891 73.4545 33.0712 73.9847 32.7293C73.9974 32.7039 74.0605 32.6596 74.1741 32.5963C74.3003 32.533 74.4329 32.4696 74.5718 32.4063C74.7106 32.343 74.8432 32.2797 74.9694 32.2163C75.0957 32.153 75.1714 32.1087 75.1967 32.0834C75.285 32.0454 75.3987 31.982 75.5375 31.8934C75.689 31.7921 75.8405 31.6971 75.992 31.6084C76.1435 31.5071 76.295 31.4185 76.4465 31.3425C76.598 31.2665 76.7368 31.2285 76.8631 31.2285C76.9767 31.2285 77.0651 31.2412 77.1282 31.2665C77.2039 31.2918 77.2923 31.3298 77.3933 31.3805C77.6079 31.3551 77.8099 31.3361 77.9993 31.3235C78.2013 31.2982 78.4032 31.2855 78.6052 31.2855C78.8198 31.2855 79.0218 31.2982 79.2112 31.3235C79.4006 31.3361 79.6026 31.3551 79.8172 31.3805C79.8172 31.3805 79.8424 31.3931 79.8929 31.4185C79.9434 31.4311 80.0002 31.4501 80.0633 31.4755C80.1265 31.5008 80.1896 31.5261 80.2527 31.5514C80.3158 31.5768 80.3663 31.5958 80.4042 31.6084C80.4421 31.6211 80.5178 31.6591 80.6314 31.7224C80.7451 31.7731 80.8713 31.8364 81.0102 31.9124C81.149 31.9884 81.2816 32.058 81.4078 32.1214C81.5341 32.172 81.6224 32.2037 81.6729 32.2163C81.6729 32.229 81.7171 32.248 81.8055 32.2733C81.8939 32.2987 81.9507 32.3113 81.9759 32.3113L82.7334 32.7293L84.4377 34.287C84.4882 34.3503 84.5639 34.5213 84.6649 34.7999C84.7785 35.0659 84.8858 35.3635 84.9868 35.6928C85.1004 36.0094 85.1951 36.3133 85.2709 36.6046C85.3592 36.8959 85.4034 37.0859 85.4034 37.1745C85.4034 37.3518 85.3529 37.4975 85.2519 37.6115C85.1509 37.7128 85.031 37.8014 84.8921 37.8774C84.7533 37.9407 84.6018 37.9914 84.4377 38.0294C84.2862 38.0547 84.1536 38.0737 84.04 38.0864H83.9643C83.838 38.0991 83.6297 38.1117 83.3393 38.1244C83.0616 38.137 82.7649 38.1497 82.4493 38.1624C82.1464 38.1624 81.856 38.1687 81.5783 38.1814C81.3131 38.1814 81.1301 38.1814 81.0291 38.1814C80.8902 38.2447 80.764 38.2827 80.6504 38.2954C80.5494 38.308 80.4421 38.3144 80.3285 38.3144L78.984 38.1814C78.7315 38.1814 78.4664 38.2257 78.1886 38.3144C77.9235 38.403 77.6647 38.4473 77.4122 38.4473C77.2481 38.4473 77.084 38.3903 76.9199 38.2764C76.7684 38.1497 76.598 38.0864 76.4086 38.0864C76.3834 38.0864 76.3139 38.1181 76.2003 38.1814C76.0993 38.232 76.0236 38.2574 75.9731 38.2574L74.5339 38.1624C74.3319 38.1624 74.1425 38.2004 73.9658 38.2764C73.7891 38.3523 73.5871 38.4853 73.3598 38.6753C73.322 39.0046 73.2967 39.2959 73.2841 39.5492C73.2715 39.7898 73.2652 40.0621 73.2652 40.366C73.2652 40.632 73.2778 40.8473 73.303 41.0119C73.3409 41.1766 73.3914 41.3349 73.4545 41.4868C73.5176 41.6262 73.5934 41.7718 73.6818 41.9238C73.7701 42.0631 73.8711 42.2404 73.9847 42.4557L74.1741 42.8166C74.5023 43.5385 74.9252 44.1211 75.4428 44.5643C75.9604 45.0076 76.6295 45.3559 77.4501 45.6092C77.4501 45.6725 77.5385 45.7358 77.7152 45.7991C77.9046 45.8498 78.1129 45.8878 78.3401 45.9131C78.6052 45.9638 78.9082 45.9954 79.2491 46.0081C79.6657 46.0081 80.0949 45.9828 80.5368 45.9321C80.9786 45.8815 81.4078 45.7991 81.8244 45.6852C82.241 45.5712 82.6324 45.4192 82.9985 45.2292C83.3772 45.0393 83.6991 44.805 83.9643 44.5263H84.2672C84.4187 44.5263 84.5197 44.5517 84.5702 44.6023C84.6333 44.6403 84.6965 44.7606 84.7596 44.9633C84.7217 45.3306 84.6649 45.6598 84.5892 45.9511C84.526 46.2297 84.4314 46.483 84.3051 46.711C84.1915 46.939 84.04 47.1543 83.8506 47.3569C83.6613 47.5469 83.4151 47.7432 83.1121 47.9458C83.0111 48.0218 82.9164 48.0788 82.8281 48.1168C82.7397 48.1421 82.6576 48.1674 82.5819 48.1928C82.5061 48.2181 82.4241 48.2561 82.3357 48.3067C82.26 48.3574 82.1716 48.446 82.0706 48.5727L80.0444 49.5985L79.8172 49.5605L78.3969 49.7885C77.3365 49.7885 76.3834 49.6365 75.5375 49.3326C74.6917 49.0286 73.9342 48.598 73.2652 48.0408C72.6087 47.4709 72.0343 46.7933 71.5419 46.0081C71.0622 45.2229 70.6519 44.3554 70.3111 43.4055C70.1975 43.0636 70.128 42.7153 70.1028 42.3607C70.0775 41.9934 69.9955 41.6198 69.8566 41.2399ZM73.5871 36.0537C73.5871 36.117 73.5934 36.212 73.606 36.3387C73.6313 36.4653 73.6628 36.592 73.7007 36.7186C73.7386 36.8453 73.7827 36.9592 73.8332 37.0606C73.8837 37.1619 73.9342 37.2189 73.9847 37.2315H74.5718L77.0903 36.8326L78.6999 36.9656C78.9777 36.9656 79.2238 36.9402 79.4384 36.8896C79.6657 36.8389 79.9119 36.7819 80.177 36.7186C80.4168 36.6806 80.6188 36.649 80.7829 36.6236C80.9597 36.5856 81.0985 36.5223 81.1995 36.4337C81.3131 36.345 81.3952 36.231 81.4457 36.0917C81.4962 35.9397 81.5215 35.7308 81.5215 35.4648C81.5215 35.0216 81.4015 34.6353 81.1617 34.306C80.9218 33.9767 80.6188 33.7044 80.2527 33.4891C79.8992 33.2612 79.5079 33.0965 79.0786 32.9952C78.662 32.8812 78.2707 32.8242 77.9046 32.8242C77.8162 32.8242 77.69 32.8496 77.5259 32.9002C77.3617 32.9382 77.1724 32.9952 76.9578 33.0712C76.7558 33.1345 76.5412 33.2105 76.3139 33.2992C76.0993 33.3752 75.8973 33.4638 75.708 33.5651C75.5312 33.6538 75.3734 33.7424 75.2345 33.8311C75.0957 33.9071 75.0073 33.9767 74.9694 34.04L74.5718 34.8949C74.496 34.9836 74.4013 35.0659 74.2877 35.1419C74.1741 35.2179 74.0605 35.3002 73.9469 35.3888C73.8459 35.4775 73.7575 35.5788 73.6818 35.6928C73.6186 35.7941 73.5871 35.9144 73.5871 36.0537Z" fill="white"/>
<path d="M89.5694 42.2657L89.4558 40.366L89.5694 38.3903V37.8204C89.5821 37.7571 89.601 37.6811 89.6263 37.5925C89.6515 37.5038 89.6641 37.4278 89.6641 37.3645C89.6641 36.9972 89.6073 36.6236 89.4937 36.2437C89.3801 35.8511 89.2917 35.4711 89.2286 35.1039C89.1023 35.0152 88.9193 34.9519 88.6794 34.9139C88.4522 34.8759 88.225 34.8316 87.9977 34.7809C87.7705 34.7176 87.5685 34.6289 87.3918 34.515C87.2276 34.401 87.1456 34.2237 87.1456 33.9831C87.1456 33.7171 87.234 33.5208 87.4107 33.3941C87.5874 33.2548 87.7957 33.1409 88.0356 33.0522C88.2881 32.9509 88.5406 32.8622 88.793 32.7862C89.0582 32.7103 89.2728 32.5963 89.4369 32.4443C89.601 32.305 89.7841 32.134 89.986 31.9314C90.188 31.7288 90.3332 31.5704 90.4216 31.4565C90.5226 31.2538 90.6551 31.0005 90.8193 30.6966C90.996 30.3926 91.1854 30.1013 91.3873 29.8227C91.5893 29.5314 91.8039 29.2845 92.0312 29.0818C92.2584 28.8665 92.4857 28.7589 92.7129 28.7589C92.8644 28.7589 92.9843 28.8032 93.0727 28.8919C93.1737 28.9679 93.2494 29.0692 93.2999 29.1958C93.3631 29.3098 93.4072 29.4365 93.4325 29.5758C93.4577 29.7151 93.4767 29.8481 93.4893 29.9747V32.1783L93.584 32.3113H94.474C94.7896 32.3113 95.08 32.2923 95.3451 32.2543C95.6102 32.2037 95.8564 32.153 96.0836 32.1024C96.3235 32.039 96.5507 31.9884 96.7653 31.9504C96.9925 31.8997 97.2324 31.8744 97.4849 31.8744C97.8384 31.8744 98.135 32.0074 98.3749 32.2733C98.6148 32.5393 98.7347 32.8559 98.7347 33.2232C98.7347 33.5145 98.6842 33.7551 98.5832 33.9451C98.4948 34.135 98.3623 34.287 98.1855 34.401C98.0088 34.515 97.8005 34.5973 97.5606 34.6479C97.3208 34.6859 97.0557 34.7049 96.7653 34.7049L95.5155 34.61L94.5687 34.7049L93.6597 34.61C93.483 34.61 93.3189 34.6923 93.1674 34.8569C93.0285 35.0089 92.9591 35.1545 92.9591 35.2938L93.1295 36.7186C93.1295 36.8959 93.1042 37.0669 93.0538 37.2315C93.0033 37.3962 92.9464 37.5671 92.8833 37.7444C92.8202 37.9091 92.7634 38.0801 92.7129 38.2574C92.6624 38.4347 92.6371 38.6183 92.6371 38.8083V39.1502L92.8076 41.3539C92.7697 41.4298 92.7445 41.5058 92.7318 41.5818C92.7318 41.6578 92.7318 41.7528 92.7318 41.8668C92.7318 41.9554 92.7445 42.0378 92.7697 42.1137C92.795 42.1897 92.8076 42.2594 92.8076 42.3227C92.8454 42.69 92.8644 43.0509 92.8644 43.4055C92.8644 43.7221 92.8518 44.0261 92.8265 44.3174C92.8013 44.6087 92.7634 44.9 92.7129 45.1912C92.7255 45.2039 92.7508 45.2419 92.7886 45.3052C92.8265 45.3559 92.8644 45.4192 92.9023 45.4952C92.9528 45.5585 92.9969 45.6282 93.0348 45.7042C93.0727 45.7675 93.1043 45.8055 93.1295 45.8181C93.2305 45.9701 93.3441 46.0841 93.4704 46.1601C93.5966 46.2361 93.7228 46.3057 93.8491 46.3691C93.9879 46.4197 94.1268 46.4767 94.2657 46.54C94.4172 46.6033 94.5624 46.6983 94.7012 46.825H95.4208C95.7112 46.825 95.9889 46.7933 96.254 46.73C96.5191 46.6667 96.7716 46.6033 97.0115 46.54C97.264 46.464 97.5038 46.3944 97.7311 46.3311C97.9709 46.2677 98.2171 46.2361 98.4696 46.2361C98.6211 46.2361 98.7347 46.3121 98.8104 46.464C98.8862 46.616 98.9241 46.7617 98.9241 46.901C98.9241 46.977 98.9177 47.0403 98.9051 47.0909C98.9051 47.1289 98.8925 47.1669 98.8672 47.2049C98.842 47.2429 98.8041 47.2872 98.7536 47.3379C98.7158 47.3886 98.6653 47.4582 98.6021 47.5469L98.337 47.9268C98.2992 47.9521 98.236 48.0155 98.1477 48.1168C98.0719 48.2181 97.9835 48.3321 97.8826 48.4587C97.7816 48.5727 97.6806 48.6867 97.5796 48.8007C97.4786 48.902 97.4028 48.978 97.3523 49.0286C97.2261 49.1679 97.0367 49.3009 96.7842 49.4276C96.5317 49.5542 96.2666 49.6619 95.9889 49.7505C95.7112 49.8518 95.4397 49.9278 95.1746 49.9785C94.9221 50.0291 94.7202 50.0545 94.5687 50.0545L92.1448 49.5605C91.9302 49.4972 91.6903 49.4022 91.4252 49.2756C91.1601 49.1489 90.9013 49.0033 90.6488 48.8387C90.409 48.6613 90.1943 48.465 90.005 48.2497C89.8282 48.0344 89.7146 47.8002 89.6641 47.5469V46.2361C89.601 45.8055 89.5253 45.4002 89.4369 45.0203C89.3611 44.6277 89.3233 44.2224 89.3233 43.8045L89.5694 42.2657Z" fill="white"/>
</svg>
