<svg width="206" height="197" viewBox="0 0 206 197" fill="none" xmlns="http://www.w3.org/2000/svg">
<path d="M8.48083 123.462L8.48083 56.345H22.4056L22.4056 34.3439H38.5582V20.9762H53.3184V11.7859H61.1163V0.646118L141.88 0.646118V8.44396L153.298 8.44396V17.9128H171.678V25.1536H180.869V31.8375L189.224 31.8375V41.0278H197.578V64.9783L205.376 64.9783V110.094L197.578 110.094L197.578 129.311H190.616V156.046H178.084V164.958H171.678V171.085H159.146V183.895H150.234V196.985L61.1163 196.985V183.895H53.3184V174.427H45.7991V164.958H31.8744V156.046H22.4056L22.4056 142.121H16.2787V123.462H8.48083Z" fill="#4D86F4"/>
<path d="M85.0662 173.035V129.311H86.0261V137.507H111.523V110.095H143.707V59.3743L190.616 59.3743V129.311H124.117L124.117 173.035H85.0662Z" fill="#242C74"/>
<path d="M182.818 102.296V94.4983H190.616V102.296H182.818Z" fill="#3F3CE1"/>
<path d="M115.979 173.034V165.236H125.448V173.034H115.979Z" fill="#4D86F4"/>
<path d="M115.979 165.794V157.996H125.448V165.794H115.979Z" fill="#4D86F4"/>
<path d="M142.715 131.818V121.235H150.513V131.818H142.715Z" fill="#4D86F4"/>
<path d="M171.678 131.817V107.867H179.476V131.817H171.678Z" fill="#4D86F4"/>
<path d="M143.272 189.188V181.39H151.069V189.188H143.272Z" fill="#3F3CE1"/>
<path d="M135.474 189.188V181.39H143.272V189.188H135.474Z" fill="#3F3CE1"/>
<path d="M127.676 189.188V181.39H135.474V189.188H127.676Z" fill="#3F3CE1"/>
<path d="M119.879 189.188V181.39H127.676V189.188H119.879Z" fill="#3F3CE1"/>
<path d="M112.08 189.188V181.39H119.878V189.188H112.08Z" fill="#3F3CE1"/>
<path d="M112.08 196.986V189.188H119.878V196.986H112.08Z" fill="#3F3CE1"/>
<path d="M119.879 196.986V189.188H127.676V196.986H119.879Z" fill="#0F1B85"/>
<path d="M127.676 196.986V189.188H135.474V196.986H127.676Z" fill="#0F1B85"/>
<path d="M135.474 196.986V189.188H143.272V196.986H135.474Z" fill="#0F1B85"/>
<path d="M143.272 196.986V189.188H151.069V196.986H143.272Z" fill="#0F1B85"/>
<path d="M104.282 196.986V189.188H112.08V196.986H104.282Z" fill="#3F3CE1"/>
<path d="M96.4847 196.986V189.188H104.283V196.986H96.4847Z" fill="#3F3CE1"/>
<path d="M88.6865 196.986V189.188H96.4844V196.986H88.6865Z" fill="#3F3CE1"/>
<path d="M71.9773 196.986V189.188H88.687V196.986H71.9773Z" fill="#3F3CE1"/>
<path d="M104.282 189.188V181.39H112.08V189.188H104.282Z" fill="#3F3CE1"/>
<path d="M96.4847 189.188V181.39H104.283V189.188H96.4847Z" fill="#3F3CE1"/>
<path d="M88.6865 189.188V181.39H96.4844V189.188H88.6865Z" fill="#3F3CE1"/>
<path d="M80.8893 189.188V181.39H88.6871V189.188H80.8893Z" fill="#3F3CE1"/>
<path d="M73.0909 189.188V181.39H80.8888V189.188H73.0909Z" fill="#3F3CE1"/>
<path d="M60.8373 196.985V181.39H73.091V196.985H60.8373Z" fill="#3F3CE1"/>
<path d="M45.7988 175.261V165.792H53.5967V175.261H45.7988Z" fill="#3F3CE1"/>
<path d="M22.4052 157.996V150.198H41.8998V157.996H22.4052Z" fill="#3F3CE1"/>
<path d="M12.3794 142.4V134.602H26.3041V142.4H12.3794Z" fill="#3F3CE1"/>
<path d="M65.293 181.39V173.592H73.0908V181.39H65.293Z" fill="#3F3CE1"/>
<path d="M45.799 165.794V157.996H53.5968V165.794H45.799Z" fill="#3F3CE1"/>
<path d="M34.1021 150.198V142.4H41.8999V150.198H34.1021Z" fill="#3F3CE1"/>
<path d="M151.069 175.263V167.465H172.235V175.263H151.069Z" fill="#3F3CE1"/>
<path d="M158.868 167.465V159.667H178.919V167.465H158.868Z" fill="#3F3CE1"/>
<path d="M166.665 159.667V151.869H183.932V159.667H166.665Z" fill="#3F3CE1"/>
<path d="M18.5065 134.602V126.804H26.3043V134.602H18.5065Z" fill="#3F3CE1"/>
<path d="M52.4824 184.732V173.592H65.2932V184.732H52.4824Z" fill="#3F3CE1"/>
<path d="M31.3171 165.794V157.996H45.7988V165.794H31.3171Z" fill="#3F3CE1"/>
<path d="M17.3921 150.198V142.4H34.1017V150.198H17.3921Z" fill="#3F3CE1"/>
<path d="M8.48083 134.602L8.48083 123.463H18.5066V134.602H8.48083Z" fill="#3F3CE1"/>
<path d="M134.917 54.9534V47.1555H158.867V54.9534H134.917Z" fill="#3F3CE1"/>
<path d="M164.437 175.263V167.465H172.235V175.263H164.437Z" fill="#0F1B85"/>
<path d="M103.725 102.296V94.4982H111.523V102.296H103.725Z" fill="#0F1B85"/>
<path d="M95.9279 94.4995V86.7017H103.726V94.4995H95.9279Z" fill="#0F1B85"/>
<path d="M72.5342 149.641V141.844H80.332V149.641H72.5342Z" fill="#0F1B85"/>
<path d="M111.523 31.5594V23.7616H119.321V31.5594H111.523Z" fill="#0F1B85"/>
<path d="M80.332 173.034V165.236H88.1299V173.034H80.332Z" fill="#0F1B85"/>
<path d="M119.321 54.9534V47.1555H127.119V54.9534H119.321Z" fill="#0F1B85"/>
<path d="M80.332 141.843V134.046H88.1299V141.843H80.332Z" fill="#0F1B85"/>
<path d="M119.321 23.7617V15.9639H127.119V23.7617H119.321Z" fill="#0F1B85"/>
<path d="M88.13 141.843V134.046H95.9278V141.843H88.13Z" fill="#0F1B85"/>
<path d="M127.119 23.7617V15.9639H134.917V23.7617H127.119Z" fill="#0F1B85"/>
<path d="M64.7366 141.844V134.046H72.5344V141.844H64.7366Z" fill="#0F1B85"/>
<path d="M103.726 23.7616V15.9637H111.523V23.7616H103.726Z" fill="#0F1B85"/>
<path d="M72.5342 165.237V157.439H80.332V165.237H72.5342Z" fill="#0F1B85"/>
<path d="M111.523 47.1554V39.3575H119.321V47.1554H111.523Z" fill="#0F1B85"/>
<path d="M71.9773 62.7511V39.3575L112.08 39.3575V62.7511H71.9773Z" fill="#3F3CE1"/>
<path d="M158.868 93.9416V86.1438H166.665V93.9416H158.868Z" fill="#3F3CE1"/>
<path d="M166.665 86.1437V78.3458H174.463V86.1437H166.665Z" fill="#3F3CE1"/>
<path d="M88.13 134.044V126.246H95.9278V134.044H88.13Z" fill="#153177"/>
<path d="M72.5341 126.248V118.45H80.3319V126.248H72.5341Z" fill="#153177"/>
<path d="M127.119 15.9637V8.16589H134.917V15.9637H127.119Z" fill="#153177"/>
<path d="M95.928 157.439V149.084H103.726V157.439H95.928Z" fill="#153177"/>
<path d="M80.332 149.641V141.844H88.1299V149.641H80.332Z" fill="#3F3CE1"/>
<path d="M119.321 31.5596V23.7617H127.119V31.5596H119.321Z" fill="#3F3CE1"/>
<path d="M88.13 173.034V165.236H95.9278V173.034H88.13Z" fill="#3F3CE1"/>
<path d="M127.119 54.9532V47.1554H134.917V54.9532H127.119Z" fill="#3F3CE1"/>
<path d="M72.5342 141.843V134.046H80.332V141.843H72.5342Z" fill="#3F3CE1"/>
<path d="M111.523 23.7616V15.9637H119.321V23.7616H111.523Z" fill="#3F3CE1"/>
<path d="M80.332 165.237V157.439H88.1299V165.237H80.332Z" fill="#3F3CE1"/>
<path d="M119.321 47.1554V39.3575H127.119V47.1554H119.321Z" fill="#3F3CE1"/>
<path d="M103.725 141.843V134.046H111.523V141.843H103.725Z" fill="#3F3CE1"/>
<path d="M88.13 126.248V118.45H95.9278V126.248H88.13Z" fill="#3F3CE1"/>
<path d="M127.119 8.16576V0.36792L134.917 0.36792V8.16576H127.119Z" fill="#3F3CE1"/>
<path d="M80.332 126.248V118.45H88.1299V126.248H80.332Z" fill="#6776FF"/>
<path d="M88.13 149.641V141.844H95.9278V149.641H88.13Z" fill="#6776FF"/>
<path d="M127.119 31.5596V23.7617H134.917V31.5596H127.119Z" fill="#6776FF"/>
<path d="M72.5342 134.044V126.246H80.332V134.044H72.5342Z" fill="#6776FF"/>
<path d="M64.1793 110.652V102.854H72.5342V110.652H64.1793Z" fill="#6776FF"/>
<path d="M111.523 15.9636V8.16577H119.321V15.9636H111.523Z" fill="#6776FF"/>
<path d="M80.332 157.439V149.642H88.1299V157.439H80.332Z" fill="#6776FF"/>
<path d="M119.321 39.3574V31.5596H127.119V39.3574H119.321Z" fill="#6776FF"/>
<path d="M80.332 134.044V126.246H88.1299V134.044H80.332Z" fill="#3F3CE1"/>
<path d="M64.1793 118.45V110.652H72.5342V118.45H64.1793Z" fill="#3F3CE1"/>
<path d="M119.321 15.9636V8.16577H127.119V15.9636H119.321Z" fill="#3F3CE1"/>
<path d="M88.13 157.439V149.642H95.9278V157.439H88.13Z" fill="#3F3CE1"/>
<path d="M127.119 39.3575V31.5597H134.917V39.3575H127.119Z" fill="#3F3CE1"/>
<path d="M77.5471 110.095V102.297H85.345V110.095H77.5471Z" fill="#3F3CE1"/>
<path d="M85.3444 110.095V102.297H93.1422V110.095H85.3444Z" fill="#3F3CE1"/>
<path d="M85.3444 102.296V94.4983H93.1422V102.296H85.3444Z" fill="#3F3CE1"/>
<path d="M64.1793 102.853V94.4982H77.547V102.853H64.1793Z" fill="#3F3CE1"/>
<path d="M77.5471 102.854V95.056H85.345V102.854H77.5471Z" fill="#3F3CE1"/>
<path d="M77.5471 95.056V87.2582H85.345V95.056H77.5471Z" fill="#3F3CE1"/>
<path d="M103.726 126.248V110.095H111.523V126.248H103.726Z" fill="#3F3CE1"/>
<path d="M8.48083 123.462L8.48083 67.2062H16.2787L16.2787 123.462H8.48083Z" fill="#3F3CE1"/>
<path d="M16.2781 114.551L16.2781 58.2952H24.0759L24.0759 114.551H16.2781Z" fill="#3F3CE1"/>
<path d="M24.0764 114.551L24.0764 58.2952H31.8743L31.8743 114.551H24.0764Z" fill="#3F3CE1"/>
<path d="M31.8739 114.551L31.8739 58.2952H39.6717L39.6717 114.551H31.8739Z" fill="#3F3CE1"/>
<path d="M39.6719 102.297L39.6719 58.2952H47.4697L47.4697 102.297H39.6719Z" fill="#3F3CE1"/>
<path d="M55.2671 130.146L55.2671 86.1438H64.1789V130.146H55.2671Z" fill="#3F3CE1"/>
<path d="M47.4697 102.296V70.5479H55.2676V102.296H47.4697Z" fill="#3F3CE1"/>
<path d="M175.02 47.1554V39.3575H182.818V47.1554H175.02Z" fill="#3F3CE1"/>
<path d="M79.7749 78.3457V70.5479H87.5727V78.3457H79.7749Z" fill="#3F3CE1"/>
<path d="M71.9773 78.3457V70.5479H79.7751V78.3457H71.9773Z" fill="#3F3CE1"/>
<path d="M134.917 78.9037V71.1058H151.07V78.9037H134.917Z" fill="#3F3CE1"/>
<path d="M134.36 39.3574V31.5596H143.272V39.3574H134.36Z" fill="#3F3CE1"/>
<path d="M64.1793 62.7512V54.9534H71.9772V62.7512H64.1793Z" fill="#3F3CE1"/>
<path d="M127.119 47.1554V39.3575H151.07V47.1554H127.119Z" fill="#3F3CE1"/>
<path d="M79.7749 39.3575V31.5597L103.725 31.5597V39.3575H79.7749Z" fill="#3F3CE1"/>
<path d="M40.2288 47.1554V39.3575H64.1793V47.1554H40.2288Z" fill="#3F3CE1"/>
<path d="M15.7216 38.243V30.4452L39.6721 30.4452V38.243H15.7216Z" fill="#3F3CE1"/>
<path d="M34.1021 30.4452V22.6473L58.0526 22.6473V30.4452L34.1021 30.4452Z" fill="#3F3CE1"/>
<path d="M35.7729 22.6472V14.8494L76.4331 14.8494V22.6472L35.7729 22.6472Z" fill="#3F3CE1"/>
<path d="M50.8115 14.8496V0.36792L94.8136 0.36792V14.8496L50.8115 14.8496Z" fill="#3F3CE1"/>
<path d="M47.4698 70.5478V62.75L103.726 62.75V70.5478H47.4698Z" fill="#3F3CE1"/>
<path d="M158.867 86.1444V71.1057H166.665V86.1444H158.867Z" fill="#3F3CE1"/>
<path d="M95.9279 149.083V126.246H103.726V149.083H95.9279Z" fill="#3F3CE1"/>
<path d="M111.523 141.843V119.006H119.321V141.843H111.523Z" fill="#3F3CE1"/>
<path d="M190.616 94.4996V54.9534H198.414V94.4996H190.616Z" fill="#3F3CE1"/>
<path d="M134.917 71.106V54.9534L190.616 54.9534V71.106H134.917Z" fill="#3F3CE1"/>
<path d="M35.7729 22.6472V14.8494H43.5708V22.6472H35.7729Z" fill="#0F1B85"/>
<path d="M87.0156 8.16576V0.36792L94.8135 0.36792V8.16576H87.0156Z" fill="#0F1B85"/>
<path d="M68.6351 22.6472V14.8494H76.433V22.6472H68.6351Z" fill="#1E1C87"/>
<path d="M60.8373 22.6472V14.8494H68.6351V22.6472H60.8373Z" fill="#8AABFF"/>
<path d="M15.7216 50.4968L15.7216 30.4452H23.5194L23.5194 50.4968H15.7216Z" fill="#0F1B85"/>
<path d="M190.616 87.8146V80.0167H198.414V87.8146H190.616Z" fill="#0F1B85"/>
<path d="M190.616 80.0179V72.2201H198.414V80.0179H190.616Z" fill="#0F1B85"/>
<path d="M190.616 72.2201V64.4222H198.414V72.2201H190.616Z" fill="#0F1B85"/>
<path d="M134.917 71.1057V63.3079H160.538V71.1057H134.917Z" fill="#0F1B85"/>
<path d="M134.917 63.3077V55.5099H143.272V63.3077H134.917Z" fill="#0F1B85"/>
<path d="M134.917 55.5099V47.712H143.272V55.5099H134.917Z" fill="#0F1B85"/>
<path d="M134.917 47.7124V39.3575H143.272V47.7124H134.917Z" fill="#0F1B85"/>
<path d="M77.5471 48.2684V40.4706H85.9019V48.2684H77.5471Z" fill="#0F1B85"/>
<path d="M85.9022 56.0663V48.2684H94.2571V56.0663H85.9022Z" fill="#0F1B85"/>
<path d="M77.5471 55.5099V47.712H85.9019V55.5099H77.5471Z" fill="#0F1B85"/>
<path d="M8.48083 58.295V50.4972H34.1023V58.295H8.48083Z" fill="#0F1B85"/>
<path d="M50.8115 8.16576V0.36792L76.433 0.36792V8.16576L50.8115 8.16576Z" fill="#0F1B85"/>
<path d="M8.48083 102.297L8.48083 50.4972H16.2787L16.2787 102.297H8.48083Z" fill="#0F1B85"/>
<path d="M8.48083 102.296L8.48083 75.004H16.8357L16.8357 102.296H8.48083Z" fill="#3F3CE1"/>
<path d="M0.682617 106.195L0.682617 75.004H8.48046L8.48046 106.195H0.682617Z" fill="#0F1B85"/>
</svg>
