<svg width="339" height="326" viewBox="0 0 339 326" fill="none" xmlns="http://www.w3.org/2000/svg">
<path d="M13.3669 203.891L13.3669 93.1949H36.333V56.9085H62.9736V34.8611L87.3177 34.8611V19.7034H100.179V1.33057L233.382 1.33057V14.1916L252.214 14.1916V29.8085H282.529V41.7509H297.687V52.7746H311.467V67.9322H325.246V107.434H338.107V181.844H325.246V213.537H313.763V257.632H293.094V272.33H282.529V282.435H261.86V303.564H247.162V325.152H100.179V303.564H87.3177V287.947H74.916V272.33H51.9499V257.632H36.333V234.666H26.2279V203.891H13.3669Z" fill="#4D86F4"/>
<path d="M139.68 285.654V213.54H141.263V227.057H183.315V181.847H236.395V98.1929L313.762 98.1929V213.54H204.086V285.654H139.68Z" fill="#242C74"/>
<path d="M300.901 168.985V156.124H313.762V168.985H300.901Z" fill="#3F3CE1"/>
<path d="M190.665 285.65V272.789H206.282V285.65H190.665Z" fill="#4D86F4"/>
<path d="M190.664 273.71V260.849H206.281V273.71H190.664Z" fill="#4D86F4"/>
<path d="M234.759 217.673V200.219H247.62V217.673H234.759Z" fill="#4D86F4"/>
<path d="M282.529 217.674V178.172H295.39V217.674H282.529Z" fill="#4D86F4"/>
<path d="M235.678 312.295V299.434H248.539V312.295H235.678Z" fill="#3F3CE1"/>
<path d="M222.817 312.294V299.433H235.678V312.294H222.817Z" fill="#3F3CE1"/>
<path d="M209.956 312.293V299.432H222.817V312.293H209.956Z" fill="#3F3CE1"/>
<path d="M197.095 312.295V299.434H209.956V312.295H197.095Z" fill="#3F3CE1"/>
<path d="M184.233 312.294V299.433H197.094V312.294H184.233Z" fill="#3F3CE1"/>
<path d="M184.234 325.154V312.293H197.095V325.154H184.234Z" fill="#3F3CE1"/>
<path d="M197.096 325.155V312.294H209.957V325.155H197.096Z" fill="#0F1B85"/>
<path d="M209.955 325.155V312.294H222.816V325.155H209.955Z" fill="#0F1B85"/>
<path d="M222.818 325.153V312.292H235.679V325.153H222.818Z" fill="#0F1B85"/>
<path d="M235.677 325.157V312.296H248.538V325.157H235.677Z" fill="#0F1B85"/>
<path d="M171.373 325.156V312.295H184.234V325.156H171.373Z" fill="#3F3CE1"/>
<path d="M158.512 325.155V312.294H171.373V325.155H158.512Z" fill="#3F3CE1"/>
<path d="M145.65 325.157V312.296H158.511V325.157H145.65Z" fill="#3F3CE1"/>
<path d="M118.091 325.157V312.296H145.65V325.157H118.091Z" fill="#3F3CE1"/>
<path d="M171.373 312.294V299.433H184.234V312.294H171.373Z" fill="#3F3CE1"/>
<path d="M158.513 312.293V299.432H171.374V312.293H158.513Z" fill="#3F3CE1"/>
<path d="M145.65 312.295V299.434H158.511V312.295H145.65Z" fill="#3F3CE1"/>
<path d="M132.79 312.294V299.433H145.651V312.294H132.79Z" fill="#3F3CE1"/>
<path d="M119.929 312.293V299.432H132.79V312.293H119.929Z" fill="#3F3CE1"/>
<path d="M99.718 325.156V299.434H119.928V325.156H99.718Z" fill="#3F3CE1"/>
<path d="M74.9162 289.324V273.707H87.7772V289.324H74.9162Z" fill="#3F3CE1"/>
<path d="M36.3318 260.85V247.989H68.4843V260.85H36.3318Z" fill="#3F3CE1"/>
<path d="M19.7966 235.128V222.267H42.7627V235.128H19.7966Z" fill="#3F3CE1"/>
<path d="M107.067 299.433V286.572H119.928V299.433H107.067Z" fill="#3F3CE1"/>
<path d="M74.9151 273.711V260.85H87.7761V273.711H74.9151Z" fill="#3F3CE1"/>
<path d="M55.6241 247.988V235.127H68.4851V247.988H55.6241Z" fill="#3F3CE1"/>
<path d="M248.538 289.329V276.468H283.446V289.329H248.538Z" fill="#3F3CE1"/>
<path d="M261.4 276.465V263.604H294.471V276.465H261.4Z" fill="#3F3CE1"/>
<path d="M274.261 263.607V250.746H302.739V263.607H274.261Z" fill="#3F3CE1"/>
<path d="M29.9026 222.265V209.404H42.7636V222.265H29.9026Z" fill="#3F3CE1"/>
<path d="M85.939 304.944V286.571H107.068V304.944H85.939Z" fill="#3F3CE1"/>
<path d="M51.0304 273.711V260.85H74.9152V273.711H51.0304Z" fill="#3F3CE1"/>
<path d="M28.0637 247.99V235.129H55.623V247.99H28.0637Z" fill="#3F3CE1"/>
<path d="M13.3665 222.267V203.894H29.9021V222.267H13.3665Z" fill="#3F3CE1"/>
<path d="M221.898 90.9017V78.0407H261.4V90.9017H221.898Z" fill="#3F3CE1"/>
<path d="M270.586 289.328V276.467H283.447V289.328H270.586Z" fill="#0F1B85"/>
<path d="M170.455 168.981V156.12H183.316V168.981H170.455Z" fill="#0F1B85"/>
<path d="M157.594 156.124V143.263H170.455V156.124H157.594Z" fill="#0F1B85"/>
<path d="M119.01 247.069V234.208H131.871V247.069H119.01Z" fill="#0F1B85"/>
<path d="M183.315 52.319V39.458H196.176V52.319H183.315Z" fill="#0F1B85"/>
<path d="M131.871 285.653V272.792H144.732V285.653H131.871Z" fill="#0F1B85"/>
<path d="M196.176 90.9001V78.0391H209.037V90.9001H196.176Z" fill="#0F1B85"/>
<path d="M131.871 234.211V221.35H144.732V234.211H131.871Z" fill="#0F1B85"/>
<path d="M196.176 39.4549V26.5939H209.037V39.4549H196.176Z" fill="#0F1B85"/>
<path d="M144.733 234.209V221.348H157.594V234.209H144.733Z" fill="#0F1B85"/>
<path d="M209.038 39.4559V26.5948H221.899V39.4559H209.038Z" fill="#0F1B85"/>
<path d="M106.149 234.209V221.348H119.01V234.209H106.149Z" fill="#0F1B85"/>
<path d="M170.454 39.4562V26.5952H183.315V39.4562H170.454Z" fill="#0F1B85"/>
<path d="M119.01 272.793V259.932H131.871V272.793H119.01Z" fill="#0F1B85"/>
<path d="M183.315 78.04V65.179H196.176V78.04H183.315Z" fill="#0F1B85"/>
<path d="M118.092 103.761V65.1775H184.235V103.761H118.092Z" fill="#3F3CE1"/>
<path d="M261.4 155.204V142.343H274.261V155.204H261.4Z" fill="#3F3CE1"/>
<path d="M274.262 142.343V129.482H287.123V142.343H274.262Z" fill="#3F3CE1"/>
<path d="M144.732 221.347V208.486H157.593V221.347H144.732Z" fill="#153177"/>
<path d="M119.01 208.486V195.625H131.871V208.486H119.01Z" fill="#153177"/>
<path d="M209.038 26.5939V13.7329H221.899V26.5939H209.038Z" fill="#153177"/>
<path d="M157.594 259.93V246.151H170.455V259.93H157.594Z" fill="#153177"/>
<path d="M131.872 247.07V234.209H144.733V247.07H131.872Z" fill="#3F3CE1"/>
<path d="M196.176 52.3169V39.4559H209.037V52.3169H196.176Z" fill="#3F3CE1"/>
<path d="M144.733 285.651V272.79H157.594V285.651H144.733Z" fill="#3F3CE1"/>
<path d="M209.038 90.9011V78.0401H221.899V90.9011H209.038Z" fill="#3F3CE1"/>
<path d="M119.01 234.21V221.349H131.871V234.21H119.01Z" fill="#3F3CE1"/>
<path d="M183.315 39.4568V26.5958H196.176V39.4568H183.315Z" fill="#3F3CE1"/>
<path d="M131.872 272.791V259.93H144.733V272.791H131.872Z" fill="#3F3CE1"/>
<path d="M196.176 78.0408V65.1798H209.037V78.0408H196.176Z" fill="#3F3CE1"/>
<path d="M170.453 234.21V221.349H183.314V234.21H170.453Z" fill="#3F3CE1"/>
<path d="M144.733 208.485V195.624H157.594V208.485H144.733Z" fill="#3F3CE1"/>
<path d="M209.038 13.7347V0.873657L221.899 0.873657V13.7347H209.038Z" fill="#3F3CE1"/>
<path d="M131.871 208.487V195.626H144.732V208.487H131.871Z" fill="#6776FF"/>
<path d="M144.732 247.071V234.21H157.593V247.071H144.732Z" fill="#6776FF"/>
<path d="M209.037 52.3178V39.4568H221.898V52.3178H209.037Z" fill="#6776FF"/>
<path d="M119.01 221.345V208.484H131.871V221.345H119.01Z" fill="#6776FF"/>
<path d="M105.231 182.763V169.902H119.011V182.763H105.231Z" fill="#6776FF"/>
<path d="M183.315 26.595V13.734H196.176V26.595H183.315Z" fill="#6776FF"/>
<path d="M131.871 259.932V247.071H144.732V259.932H131.871Z" fill="#6776FF"/>
<path d="M196.176 65.1789V52.3179H209.037V65.1789H196.176Z" fill="#6776FF"/>
<path d="M131.871 221.346V208.485H144.732V221.346H131.871Z" fill="#3F3CE1"/>
<path d="M105.231 195.625V182.764H119.01V195.625H105.231Z" fill="#3F3CE1"/>
<path d="M196.176 26.5956V13.7346H209.037V26.5956H196.176Z" fill="#3F3CE1"/>
<path d="M144.733 259.933V247.072H157.594V259.933H144.733Z" fill="#3F3CE1"/>
<path d="M209.037 65.1797V52.3187H221.898V65.1797H209.037Z" fill="#3F3CE1"/>
<path d="M127.278 181.846V168.985H140.139V181.846H127.278Z" fill="#3F3CE1"/>
<path d="M140.138 181.846V168.985H152.999V181.846H140.138Z" fill="#3F3CE1"/>
<path d="M140.138 168.982V156.121H152.999V168.982H140.138Z" fill="#3F3CE1"/>
<path d="M105.231 169.901V156.121H127.278V169.901H105.231Z" fill="#3F3CE1"/>
<path d="M127.278 169.903V157.042H140.139V169.903H127.278Z" fill="#3F3CE1"/>
<path d="M127.279 157.041V144.18H140.14V157.041H127.279Z" fill="#3F3CE1"/>
<path d="M170.454 208.488V181.847H183.315V208.488H170.454Z" fill="#3F3CE1"/>
<path d="M13.3671 203.892L13.3671 111.109H26.2281V203.892H13.3671Z" fill="#3F3CE1"/>
<path d="M26.2269 189.195L26.2269 96.4118H39.0879V189.195H26.2269Z" fill="#3F3CE1"/>
<path d="M39.0887 189.196V96.4128H51.9497V189.196H39.0887Z" fill="#3F3CE1"/>
<path d="M51.9498 189.194V96.4108H64.8108V189.194H51.9498Z" fill="#3F3CE1"/>
<path d="M64.8098 168.987V96.4142H77.6708V168.987H64.8098Z" fill="#3F3CE1"/>
<path d="M90.5315 214.916V142.343H105.23V214.916H90.5315Z" fill="#3F3CE1"/>
<path d="M77.6714 168.984V116.622H90.5324V168.984H77.6714Z" fill="#3F3CE1"/>
<path d="M288.04 78.0395V65.1785H300.902V78.0395H288.04Z" fill="#3F3CE1"/>
<path d="M130.952 129.484V116.623H143.813V129.484H130.952Z" fill="#3F3CE1"/>
<path d="M118.092 129.481V116.62H130.953V129.481H118.092Z" fill="#3F3CE1"/>
<path d="M221.898 130.401V117.54H248.539V130.401H221.898Z" fill="#3F3CE1"/>
<path d="M220.979 65.1799V52.3188H235.678V65.1799H220.979Z" fill="#3F3CE1"/>
<path d="M105.23 103.761V90.9005H118.091V103.761H105.23Z" fill="#3F3CE1"/>
<path d="M209.038 78.0391V65.1781H248.54V78.0391H209.038Z" fill="#3F3CE1"/>
<path d="M130.952 65.1797V52.3187H170.453V65.1797H130.952Z" fill="#3F3CE1"/>
<path d="M65.7285 78.04V65.179H105.23V78.04H65.7285Z" fill="#3F3CE1"/>
<path d="M25.3092 63.339V50.478H64.8109V63.339H25.3092Z" fill="#3F3CE1"/>
<path d="M55.6237 50.4789V37.6179H95.1254V50.4789H55.6237Z" fill="#3F3CE1"/>
<path d="M58.3802 37.6163V24.7552L125.441 24.7552V37.6163H58.3802Z" fill="#3F3CE1"/>
<path d="M83.183 24.7579V0.873169L155.756 0.873169V24.7579L83.183 24.7579Z" fill="#3F3CE1"/>
<path d="M77.6718 116.621V103.76H170.455V116.621H77.6718Z" fill="#3F3CE1"/>
<path d="M261.4 142.344V117.54H274.261V142.344H261.4Z" fill="#3F3CE1"/>
<path d="M157.594 246.148V208.484H170.455V246.148H157.594Z" fill="#3F3CE1"/>
<path d="M183.314 234.209V196.545H196.175V234.209H183.314Z" fill="#3F3CE1"/>
<path d="M313.763 156.125V90.9012H326.624V156.125H313.763Z" fill="#3F3CE1"/>
<path d="M221.899 117.541V90.9H313.763V117.541H221.899Z" fill="#3F3CE1"/>
<path d="M58.3802 37.6163V24.7552H71.2412V37.6163H58.3802Z" fill="#0F1B85"/>
<path d="M142.894 13.7348V0.873779L155.755 0.873779V13.7348H142.894Z" fill="#0F1B85"/>
<path d="M112.58 37.6186V24.7576H125.441V37.6186H112.58Z" fill="#1E1C87"/>
<path d="M99.7183 37.6176V24.7566H112.579V37.6176H99.7183Z" fill="#8AABFF"/>
<path d="M25.3092 83.5492V50.478H38.1702V83.5492H25.3092Z" fill="#0F1B85"/>
<path d="M313.763 145.1V132.239H326.624V145.1H313.763Z" fill="#0F1B85"/>
<path d="M313.762 132.241V119.38H326.623V132.241H313.762Z" fill="#0F1B85"/>
<path d="M313.763 119.379V106.518H326.624V119.379H313.763Z" fill="#0F1B85"/>
<path d="M221.898 117.542V104.681H264.156V117.542H221.898Z" fill="#0F1B85"/>
<path d="M221.898 104.68V91.8189H235.677V104.68H221.898Z" fill="#0F1B85"/>
<path d="M221.898 91.818V78.957H235.678V91.818H221.898Z" fill="#0F1B85"/>
<path d="M221.898 78.9585V65.1788H235.678V78.9585H221.898Z" fill="#0F1B85"/>
<path d="M127.278 79.8747V67.0137H141.058V79.8747H127.278Z" fill="#0F1B85"/>
<path d="M141.058 92.7355V79.8745H154.838V92.7355H141.058Z" fill="#0F1B85"/>
<path d="M127.278 91.8177V78.9567H141.058V91.8177H127.278Z" fill="#0F1B85"/>
<path d="M13.3668 96.4131V83.5521H55.6244V96.4131H13.3668Z" fill="#0F1B85"/>
<path d="M83.183 13.7342V0.873169L125.441 0.873169V13.7342L83.183 13.7342Z" fill="#0F1B85"/>
<path d="M13.3668 168.986L13.3668 83.5521H26.2278V168.986H13.3668Z" fill="#0F1B85"/>
<path d="M13.3667 168.984L13.3667 123.971H27.1464V168.984H13.3667Z" fill="#3F3CE1"/>
<path d="M0.504588 175.416L0.504588 123.972H13.3656L13.3656 175.416H0.504588Z" fill="#0F1B85"/>
</svg>
