<svg width="401" height="411" viewBox="0 0 401 411" fill="none" xmlns="http://www.w3.org/2000/svg">
<path d="M280.15 345.061L173.225 373.711L167.281 351.528L132.231 360.919L125.336 335.186L104.04 340.893L97.7389 317.378L83.0977 321.301L79.7691 308.879L62.0222 313.634L27.5467 184.969L39.9695 181.641L35.0953 163.45L50.1802 159.408L42.334 130.126L53.8694 127.035L49.9463 112.394L60.5944 109.541L57.028 96.2306L71.6691 92.3075L68.1027 78.9974L106.258 68.7736L102.93 56.3508L174.804 37.0921L178.133 49.5148L208.746 41.312L211.718 52.4038L254.311 40.9912L259.66 60.9564L273.858 57.1522L276.592 67.3566L286.353 64.7412L291.703 84.7064L312.111 79.2379L315.916 93.4353L336.768 87.8479L374.81 229.823L353.958 235.41L357.286 247.833L342.201 251.875L345.411 263.854L330.326 267.896L336.271 290.079L322.073 293.883L326.115 308.968L303.931 314.912L306.547 324.673L276.821 332.638L280.15 345.061Z" fill="#4D86F4"/>
<path d="M326.434 201.891L256.777 220.555L256.367 219.026L269.424 215.527L258.54 174.908L214.87 186.609L201.132 135.338L120.329 156.989L100.305 82.2578L211.721 52.4039L240.107 158.343L309.764 139.679L326.434 201.891Z" fill="#242C74"/>
<path d="M172.013 76.3586L159.59 79.6873L156.262 67.2645L168.684 63.9358L172.013 76.3586Z" fill="#3F3CE1"/>
<path d="M313.235 152.644L300.812 155.972L296.77 140.887L309.193 137.559L313.235 152.644Z" fill="#4D86F4"/>
<path d="M301.701 155.734L289.279 159.063L285.237 143.978L297.659 140.65L301.701 155.734Z" fill="#4D86F4"/>
<path d="M236.161 127.645L219.302 132.163L215.973 119.74L232.833 115.223L236.161 127.645Z" fill="#4D86F4"/>
<path d="M223.798 81.5033L185.643 91.7271L182.314 79.3043L220.47 69.0805L223.798 81.5033Z" fill="#4D86F4"/>
<path d="M327.321 102.268L314.898 105.597L311.569 93.1741L323.992 89.8455L327.321 102.268Z" fill="#3F3CE1"/>
<path d="M330.649 114.691L318.226 118.019L314.897 105.597L327.32 102.268L330.649 114.691Z" fill="#3F3CE1"/>
<path d="M333.977 127.114L321.554 130.443L318.225 118.02L330.648 114.692L333.977 127.114Z" fill="#3F3CE1"/>
<path d="M337.307 139.536L324.885 142.865L321.556 130.442L333.979 127.113L337.307 139.536Z" fill="#3F3CE1"/>
<path d="M340.635 151.96L328.212 155.288L324.884 142.866L337.307 139.537L340.635 151.96Z" fill="#3F3CE1"/>
<path d="M353.056 148.631L340.633 151.959L337.305 139.536L349.728 136.208L353.056 148.631Z" fill="#3F3CE1"/>
<path d="M349.728 136.207L337.306 139.536L333.977 127.113L346.4 123.785L349.728 136.207Z" fill="#0F1B85"/>
<path d="M346.401 123.786L333.978 127.115L330.649 114.692L343.072 111.363L346.401 123.786Z" fill="#0F1B85"/>
<path d="M343.07 111.362L330.647 114.691L327.318 102.268L339.741 98.9392L343.07 111.362Z" fill="#0F1B85"/>
<path d="M339.745 98.9398L327.322 102.268L323.993 89.8457L336.416 86.517L339.745 98.9398Z" fill="#0F1B85"/>
<path d="M356.387 161.054L343.964 164.382L340.635 151.96L353.058 148.631L356.387 161.054Z" fill="#3F3CE1"/>
<path d="M359.715 173.476L347.292 176.805L343.963 164.382L356.386 161.053L359.715 173.476Z" fill="#3F3CE1"/>
<path d="M363.045 185.9L350.623 189.228L347.294 176.806L359.717 173.477L363.045 185.9Z" fill="#3F3CE1"/>
<path d="M370.178 212.519L357.755 215.848L350.623 189.228L363.045 185.899L370.178 212.519Z" fill="#3F3CE1"/>
<path d="M343.963 164.382L331.54 167.711L328.212 155.288L340.634 151.959L343.963 164.382Z" fill="#3F3CE1"/>
<path d="M347.291 176.805L334.868 180.133L331.54 167.711L343.962 164.382L347.291 176.805Z" fill="#3F3CE1"/>
<path d="M350.622 189.228L338.199 192.557L334.87 180.134L347.293 176.806L350.622 189.228Z" fill="#3F3CE1"/>
<path d="M353.95 201.65L341.527 204.979L338.198 192.556L350.621 189.227L353.95 201.65Z" fill="#3F3CE1"/>
<path d="M357.277 214.074L344.855 217.402L341.526 204.98L353.949 201.651L357.277 214.074Z" fill="#3F3CE1"/>
<path d="M374.933 230.266L350.088 236.924L344.857 217.402L369.703 210.745L374.933 230.266Z" fill="#3F3CE1"/>
<path d="M346.741 263.497L331.656 267.539L328.327 255.117L343.412 251.075L346.741 263.497Z" fill="#3F3CE1"/>
<path d="M329.223 308.137L316.801 311.465L308.479 280.408L320.902 277.08L329.223 308.137Z" fill="#3F3CE1"/>
<path d="M308.658 330.766L296.235 334.094L290.291 311.911L302.714 308.582L308.658 330.766Z" fill="#3F3CE1"/>
<path d="M348.184 229.825L335.762 233.154L332.433 220.731L344.856 217.403L348.184 229.825Z" fill="#3F3CE1"/>
<path d="M331.661 267.539L319.238 270.868L315.909 258.445L328.332 255.116L331.661 267.539Z" fill="#3F3CE1"/>
<path d="M311.806 292.831L299.384 296.159L296.055 283.737L308.478 280.408L311.806 292.831Z" fill="#3F3CE1"/>
<path d="M301.809 95.7903L289.386 99.119L280.351 65.4L292.774 62.0714L301.809 95.7903Z" fill="#3F3CE1"/>
<path d="M286.055 86.6959L273.632 90.0245L265.072 58.0802L277.495 54.7516L286.055 86.6959Z" fill="#3F3CE1"/>
<path d="M270.306 77.6014L257.883 80.9301L250.512 53.4225L262.935 50.0938L270.306 77.6014Z" fill="#3F3CE1"/>
<path d="M293.617 324.333L281.195 327.662L277.866 315.239L290.289 311.91L293.617 324.333Z" fill="#3F3CE1"/>
<path d="M358.976 248.807L341.229 253.562L335.76 233.154L353.507 228.398L358.976 248.807Z" fill="#3F3CE1"/>
<path d="M337.842 290.61L325.419 293.939L319.238 270.868L331.66 267.539L337.842 290.61Z" fill="#3F3CE1"/>
<path d="M318.942 319.451L306.519 322.78L299.386 296.16L311.809 292.831L318.942 319.451Z" fill="#3F3CE1"/>
<path d="M297.899 340.305L280.152 345.061L275.873 329.088L293.62 324.333L297.899 340.305Z" fill="#3F3CE1"/>
<path d="M117.038 172.879L104.615 176.208L94.3915 138.052L106.814 134.723L117.038 172.879Z" fill="#3F3CE1"/>
<path d="M296.102 74.4933L283.679 77.822L280.35 65.3992L292.773 62.0706L296.102 74.4933Z" fill="#0F1B85"/>
<path d="M205.772 202.361L193.349 205.69L190.02 193.267L202.443 189.939L205.772 202.361Z" fill="#0F1B85"/>
<path d="M196.681 218.112L184.258 221.44L180.93 209.018L193.353 205.689L196.681 218.112Z" fill="#0F1B85"/>
<path d="M294.514 231.842L282.091 235.171L278.762 222.748L291.185 219.419L294.514 231.842Z" fill="#0F1B85"/>
<path d="M89.756 220.133L77.3332 223.462L74.0045 211.039L86.4273 207.71L89.756 220.133Z" fill="#0F1B85"/>
<path d="M328.454 209.433L316.031 212.762L312.703 200.339L325.125 197.011L328.454 209.433Z" fill="#0F1B85"/>
<path d="M123.694 197.725L111.271 201.054L107.942 188.631L120.365 185.302L123.694 197.725Z" fill="#0F1B85"/>
<path d="M278.765 222.748L266.342 226.076L263.013 213.654L275.436 210.325L278.765 222.748Z" fill="#0F1B85"/>
<path d="M74.0016 211.04L61.5788 214.369L58.2501 201.946L70.6729 198.617L74.0016 211.04Z" fill="#0F1B85"/>
<path d="M275.434 210.325L263.011 213.653L259.683 201.231L272.105 197.902L275.434 210.325Z" fill="#0F1B85"/>
<path d="M70.6737 198.616L58.2509 201.945L54.9222 189.522L67.345 186.194L70.6737 198.616Z" fill="#0F1B85"/>
<path d="M285.42 247.593L272.998 250.922L269.669 238.499L282.092 235.17L285.42 247.593Z" fill="#0F1B85"/>
<path d="M80.6601 235.885L68.2373 239.214L64.9087 226.791L77.3315 223.462L80.6601 235.885Z" fill="#0F1B85"/>
<path d="M319.361 225.184L306.938 228.513L303.61 216.09L316.032 212.762L319.361 225.184Z" fill="#0F1B85"/>
<path d="M114.601 213.477L102.178 216.806L98.8493 204.383L111.272 201.054L114.601 213.477Z" fill="#0F1B85"/>
<path d="M156.326 269.82L119.057 279.806L101.938 215.917L139.207 205.931L156.326 269.82Z" fill="#3F3CE1"/>
<path d="M168.925 118.081L156.502 121.409L153.174 108.986L165.596 105.658L168.925 118.081Z" fill="#3F3CE1"/>
<path d="M153.173 108.986L140.751 112.315L137.422 99.892L149.845 96.5634L153.173 108.986Z" fill="#3F3CE1"/>
<path d="M263.01 213.654L250.587 216.983L247.259 204.56L259.682 201.231L263.01 213.654Z" fill="#153177"/>
<path d="M257.245 241.828L244.822 245.157L241.494 232.734L253.916 229.405L257.245 241.828Z" fill="#153177"/>
<path d="M58.25 201.945L45.8272 205.274L42.4985 192.851L54.9213 189.522L58.25 201.945Z" fill="#153177"/>
<path d="M296.95 191.244L283.64 194.811L280.312 182.388L293.622 178.822L296.95 191.244Z" fill="#153177"/>
<path d="M291.186 219.419L278.763 222.747L275.434 210.324L287.857 206.996L291.186 219.419Z" fill="#3F3CE1"/>
<path d="M86.4253 207.711L74.0026 211.04L70.6739 198.617L83.0967 195.288L86.4253 207.711Z" fill="#3F3CE1"/>
<path d="M325.123 197.01L312.701 200.339L309.372 187.916L321.795 184.588L325.123 197.01Z" fill="#3F3CE1"/>
<path d="M120.366 185.301L107.943 188.63L104.614 176.207L117.037 172.879L120.366 185.301Z" fill="#3F3CE1"/>
<path d="M282.093 235.171L269.67 238.5L266.341 226.077L278.764 222.748L282.093 235.171Z" fill="#3F3CE1"/>
<path d="M77.3322 223.463L64.9095 226.791L61.5808 214.368L74.0036 211.04L77.3322 223.463Z" fill="#3F3CE1"/>
<path d="M316.03 212.761L303.608 216.09L300.279 203.667L312.702 200.339L316.03 212.761Z" fill="#3F3CE1"/>
<path d="M111.273 201.054L98.8501 204.382L95.5214 191.96L107.944 188.631L111.273 201.054Z" fill="#3F3CE1"/>
<path d="M268.778 185.48L256.355 188.809L253.027 176.386L265.45 173.057L268.778 185.48Z" fill="#3F3CE1"/>
<path d="M250.586 216.983L238.164 220.311L234.835 207.888L247.258 204.56L250.586 216.983Z" fill="#3F3CE1"/>
<path d="M45.829 205.274L33.4062 208.602L30.0775 196.18L42.5003 192.851L45.829 205.274Z" fill="#3F3CE1"/>
<path d="M253.917 229.405L241.494 232.734L238.166 220.311L250.588 216.982L253.917 229.405Z" fill="#6776FF"/>
<path d="M287.858 206.996L275.435 210.325L272.106 197.902L284.529 194.573L287.858 206.996Z" fill="#6776FF"/>
<path d="M83.0975 195.288L70.6747 198.617L67.346 186.194L79.7688 182.865L83.0975 195.288Z" fill="#6776FF"/>
<path d="M269.666 238.5L257.243 241.829L253.915 229.406L266.337 226.077L269.666 238.5Z" fill="#6776FF"/>
<path d="M235.965 261.795L223.542 265.124L219.976 251.814L232.399 248.485L235.965 261.795Z" fill="#6776FF"/>
<path d="M64.9085 226.791L52.4857 230.12L49.157 217.697L61.5798 214.368L64.9085 226.791Z" fill="#6776FF"/>
<path d="M303.609 216.091L291.187 219.419L287.858 206.997L300.281 203.668L303.609 216.091Z" fill="#6776FF"/>
<path d="M98.8491 204.382L86.4263 207.711L83.0976 195.288L95.5204 191.96L98.8491 204.382Z" fill="#6776FF"/>
<path d="M266.338 226.077L253.915 229.406L250.587 216.983L263.009 213.654L266.338 226.077Z" fill="#3F3CE1"/>
<path d="M248.389 258.467L235.966 261.795L232.4 248.485L244.823 245.157L248.389 258.467Z" fill="#3F3CE1"/>
<path d="M61.5806 214.369L49.1578 217.698L45.8292 205.275L58.2519 201.946L61.5806 214.369Z" fill="#3F3CE1"/>
<path d="M300.281 203.667L287.859 206.995L284.53 194.573L296.953 191.244L300.281 203.667Z" fill="#3F3CE1"/>
<path d="M95.5212 191.959L83.0984 195.288L79.7698 182.865L92.1925 179.537L95.5212 191.959Z" fill="#3F3CE1"/>
<path d="M229.373 240.737L216.95 244.066L213.621 231.643L226.044 228.314L229.373 240.737Z" fill="#3F3CE1"/>
<path d="M226.045 228.315L213.622 231.644L210.294 219.221L222.716 215.892L226.045 228.315Z" fill="#3F3CE1"/>
<path d="M213.619 231.644L201.196 234.973L197.867 222.55L210.29 219.222L213.619 231.644Z" fill="#3F3CE1"/>
<path d="M223.541 265.125L210.231 268.691L204.525 247.395L217.835 243.828L223.541 265.125Z" fill="#3F3CE1"/>
<path d="M217.837 243.828L205.414 247.156L202.086 234.733L214.508 231.405L217.837 243.828Z" fill="#3F3CE1"/>
<path d="M205.413 247.156L192.99 250.485L189.662 238.062L202.085 234.733L205.413 247.156Z" fill="#3F3CE1"/>
<path d="M243.932 192.136L218.199 199.031L214.87 186.609L240.603 179.714L243.932 192.136Z" fill="#3F3CE1"/>
<path d="M280.15 345.061L190.528 369.075L187.2 356.652L276.821 332.638L280.15 345.061Z" fill="#3F3CE1"/>
<path d="M262.625 336.443L173.004 360.457L169.675 348.034L259.297 324.02L262.625 336.443Z" fill="#3F3CE1"/>
<path d="M259.297 324.019L169.676 348.033L166.347 335.61L255.969 311.596L259.297 324.019Z" fill="#3F3CE1"/>
<path d="M255.967 311.597L166.345 335.611L163.017 323.188L252.638 299.174L255.967 311.597Z" fill="#3F3CE1"/>
<path d="M233.12 304.405L163.02 323.188L159.691 310.765L229.791 291.982L233.12 304.405Z" fill="#3F3CE1"/>
<path d="M270.827 267.672L200.727 286.455L196.923 272.258L267.023 253.475L270.827 267.672Z" fill="#3F3CE1"/>
<path d="M229.789 291.982L179.21 305.535L175.881 293.112L226.46 279.559L229.789 291.982Z" fill="#3F3CE1"/>
<path d="M87.4951 112.32L75.0723 115.648L71.7437 103.225L84.1664 99.8967L87.4951 112.32Z" fill="#3F3CE1"/>
<path d="M177.844 250.741L165.422 254.069L162.093 241.646L174.516 238.318L177.844 250.741Z" fill="#3F3CE1"/>
<path d="M181.17 263.163L168.747 266.492L165.418 254.069L177.841 250.74L181.17 263.163Z" fill="#3F3CE1"/>
<path d="M155.192 162.656L142.769 165.984L135.874 140.251L148.296 136.923L155.192 162.656Z" fill="#3F3CE1"/>
<path d="M92.4304 180.424L80.0076 183.753L76.2034 169.555L88.6262 166.227L92.4304 180.424Z" fill="#3F3CE1"/>
<path d="M159.655 282.243L147.233 285.572L143.904 273.149L156.327 269.82L159.655 282.243Z" fill="#3F3CE1"/>
<path d="M107.942 188.63L95.5194 191.959L85.2956 153.803L97.7184 150.474L107.942 188.63Z" fill="#3F3CE1"/>
<path d="M115.731 267.384L103.308 270.713L93.0846 232.557L105.507 229.228L115.731 267.384Z" fill="#3F3CE1"/>
<path d="M145.034 327.056L132.611 330.385L122.388 292.229L134.81 288.901L145.034 327.056Z" fill="#3F3CE1"/>
<path d="M141.296 369.903L128.873 373.232L118.649 335.076L131.072 331.747L141.296 369.903Z" fill="#3F3CE1"/>
<path d="M121.028 343.95L108.605 347.279L98.3811 309.123L110.804 305.794L121.028 343.95Z" fill="#3F3CE1"/>
<path d="M107.89 344.617L95.467 347.945L78.1104 283.169L90.5332 279.841L107.89 344.617Z" fill="#3F3CE1"/>
<path d="M89.0501 323.987L65.9792 330.169L47.196 260.069L70.2669 253.887L89.0501 323.987Z" fill="#3F3CE1"/>
<path d="M179.209 305.534L166.786 308.863L142.772 219.242L155.195 215.913L179.209 305.534Z" fill="#3F3CE1"/>
<path d="M156.504 121.409L132.545 127.829L129.217 115.406L153.175 108.986L156.504 121.409Z" fill="#3F3CE1"/>
<path d="M283.638 194.811L247.257 204.56L243.928 192.137L280.309 182.389L283.638 194.811Z" fill="#3F3CE1"/>
<path d="M265.449 173.057L229.068 182.806L225.739 170.383L262.12 160.635L265.449 173.057Z" fill="#3F3CE1"/>
<path d="M156.263 67.2638L93.2613 84.1449L89.9326 71.7221L152.934 54.841L156.263 67.2638Z" fill="#3F3CE1"/>
<path d="M142.769 165.984L117.036 172.879L93.26 84.145L118.993 77.2499L142.769 165.984Z" fill="#3F3CE1"/>
<path d="M107.89 344.617L95.467 347.945L92.1384 335.522L104.561 332.194L107.89 344.617Z" fill="#0F1B85"/>
<path d="M62.9481 269.163L50.5254 272.492L47.1967 260.069L59.6195 256.74L62.9481 269.163Z" fill="#0F1B85"/>
<path d="M93.8642 292.263L81.4414 295.592L78.1127 283.169L90.5355 279.84L93.8642 292.263Z" fill="#1E1C87"/>
<path d="M97.192 304.687L84.7693 308.015L81.4406 295.593L93.8634 292.264L97.192 304.687Z" fill="#8AABFF"/>
<path d="M160.817 364.672L128.873 373.232L125.544 360.809L157.488 352.25L160.817 364.672Z" fill="#0F1B85"/>
<path d="M145.613 70.117L133.19 73.4457L129.862 61.0229L142.285 57.6942L145.613 70.117Z" fill="#0F1B85"/>
<path d="M133.192 73.4456L120.769 76.7743L117.441 64.3515L129.864 61.0228L133.192 73.4456Z" fill="#0F1B85"/>
<path d="M120.768 76.7735L108.346 80.1022L105.017 67.6794L117.44 64.3507L120.768 76.7735Z" fill="#0F1B85"/>
<path d="M142.771 165.984L130.348 169.313L119.411 128.495L131.834 125.166L142.771 165.984Z" fill="#0F1B85"/>
<path d="M130.347 169.313L117.924 172.642L114.358 159.332L126.78 156.003L130.347 169.313Z" fill="#0F1B85"/>
<path d="M117.923 172.642L105.5 175.971L101.934 162.66L114.357 159.332L117.923 172.642Z" fill="#0F1B85"/>
<path d="M105.502 175.97L92.1915 179.536L88.6251 166.226L101.935 162.66L105.502 175.97Z" fill="#0F1B85"/>
<path d="M130.876 267.129L118.453 270.458L114.887 257.148L127.31 253.819L130.876 267.129Z" fill="#0F1B85"/>
<path d="M139.732 250.49L127.309 253.818L123.743 240.508L136.166 237.179L139.732 250.49Z" fill="#0F1B85"/>
<path d="M142.412 264.038L129.989 267.366L126.423 254.056L138.846 250.727L142.412 264.038Z" fill="#0F1B85"/>
<path d="M176.333 372.878L163.911 376.207L152.974 335.389L165.396 332.061L176.333 372.878Z" fill="#0F1B85"/>
<path d="M78.402 326.84L65.9792 330.169L55.0422 289.351L67.4649 286.022L78.402 326.84Z" fill="#0F1B85"/>
<path d="M246.433 354.095L163.911 376.207L160.582 363.784L243.105 341.672L246.433 354.095Z" fill="#0F1B85"/>
<path d="M246.432 354.096L202.952 365.746L199.386 352.436L242.865 340.786L246.432 354.096Z" fill="#3F3CE1"/>
<path d="M255.974 364.855L206.283 378.17L202.954 365.747L252.645 352.432L255.974 364.855Z" fill="#0F1B85"/>
</svg>
