<svg width="271" height="274" viewBox="0 0 271 274" fill="none" xmlns="http://www.w3.org/2000/svg">
<path d="M112.139 231.702L53.0065 199.951L59.5937 187.683L40.2102 177.275L47.8515 163.044L36.0741 156.72L43.0566 143.716L34.9597 139.369L38.6486 132.499L28.8341 127.229L67.0404 56.074L73.9105 59.7629L79.3121 49.7031L87.6544 54.1824L96.3496 37.9886L102.729 41.414L107.077 33.3171L112.965 36.479L116.918 29.1181L125.015 33.4657L128.967 26.1049L150.068 37.435L153.757 30.5649L193.505 51.9077L189.817 58.7778L206.746 67.8683L203.453 74.0023L227.007 86.6499L221.079 97.6912L228.931 101.907L225.9 107.55L231.298 110.449L225.37 121.49L236.656 127.55L232.44 135.402L243.972 141.594L201.814 220.11L190.282 213.917L186.593 220.788L178.251 216.308L174.694 222.933L166.351 218.454L159.764 230.722L151.912 226.506L147.433 234.848L135.165 228.261L132.267 233.659L115.827 224.832L112.139 231.702Z" fill="#4D86F4"/>
<path d="M192.043 187.679L153.521 166.995L153.975 166.149L161.196 170.026L173.258 147.563L149.107 134.595L164.332 106.241L119.646 82.2467L141.837 40.9185L203.453 74.003L171.995 132.59L210.517 153.274L192.043 187.679Z" fill="#242C74"/>
<path d="M175.963 68.0933L169.093 64.4044L172.782 57.5343L179.652 61.2232L175.963 68.0933Z" fill="#3F3CE1"/>
<path d="M206.666 160.443L199.796 156.755L204.275 148.412L211.146 152.101L206.666 160.443Z" fill="#4D86F4"/>
<path d="M200.288 157.018L193.417 153.33L197.897 144.987L204.767 148.676L200.288 157.018Z" fill="#4D86F4"/>
<path d="M183.001 117.391L173.678 112.385L177.367 105.514L186.69 110.521L183.001 117.391Z" fill="#4D86F4"/>
<path d="M196.702 91.873L175.601 80.5429L179.29 73.6728L200.391 85.0029L196.702 91.873Z" fill="#4D86F4"/>
<path d="M233.809 144.04L226.939 140.351L230.628 133.481L237.498 137.17L233.809 144.04Z" fill="#3F3CE1"/>
<path d="M230.12 150.91L223.25 147.221L226.939 140.351L233.809 144.04L230.12 150.91Z" fill="#3F3CE1"/>
<path d="M226.431 157.78L219.561 154.091L223.25 147.221L230.12 150.91L226.431 157.78Z" fill="#3F3CE1"/>
<path d="M222.743 164.65L215.873 160.961L219.562 154.091L226.432 157.78L222.743 164.65Z" fill="#3F3CE1"/>
<path d="M219.054 171.52L212.183 167.831L215.872 160.961L222.742 164.65L219.054 171.52Z" fill="#3F3CE1"/>
<path d="M225.924 175.209L219.054 171.52L222.743 164.65L229.613 168.339L225.924 175.209Z" fill="#3F3CE1"/>
<path d="M229.613 168.339L222.743 164.65L226.432 157.78L233.302 161.469L229.613 168.339Z" fill="#0F1B85"/>
<path d="M233.302 161.469L226.431 157.78L230.12 150.91L236.99 154.599L233.302 161.469Z" fill="#0F1B85"/>
<path d="M236.991 154.599L230.121 150.91L233.809 144.04L240.68 147.729L236.991 154.599Z" fill="#0F1B85"/>
<path d="M240.679 147.729L233.809 144.04L237.498 137.17L244.368 140.859L240.679 147.729Z" fill="#0F1B85"/>
<path d="M222.235 182.079L215.365 178.391L219.054 171.52L225.924 175.209L222.235 182.079Z" fill="#3F3CE1"/>
<path d="M218.546 188.949L211.676 185.26L215.365 178.39L222.235 182.079L218.546 188.949Z" fill="#3F3CE1"/>
<path d="M214.857 195.82L207.987 192.131L211.676 185.261L218.546 188.95L214.857 195.82Z" fill="#3F3CE1"/>
<path d="M206.953 210.541L200.082 206.852L207.987 192.131L214.857 195.819L206.953 210.541Z" fill="#3F3CE1"/>
<path d="M215.365 178.39L208.495 174.702L212.184 167.831L219.054 171.52L215.365 178.39Z" fill="#3F3CE1"/>
<path d="M211.676 185.26L204.806 181.571L208.495 174.701L215.365 178.39L211.676 185.26Z" fill="#3F3CE1"/>
<path d="M207.987 192.131L201.117 188.442L204.806 181.572L211.676 185.261L207.987 192.131Z" fill="#3F3CE1"/>
<path d="M204.298 199L197.428 195.312L201.117 188.441L207.987 192.13L204.298 199Z" fill="#3F3CE1"/>
<path d="M200.609 205.871L193.739 202.182L197.428 195.312L204.298 199.001L200.609 205.871Z" fill="#3F3CE1"/>
<path d="M201.682 220.356L187.942 212.978L193.739 202.182L207.479 209.56L201.682 220.356Z" fill="#3F3CE1"/>
<path d="M175.429 223.328L167.087 218.849L170.775 211.979L179.118 216.458L175.429 223.328Z" fill="#3F3CE1"/>
<path d="M149.151 235.771L142.281 232.082L151.503 214.907L158.373 218.596L149.151 235.771Z" fill="#3F3CE1"/>
<path d="M130.668 237.226L123.797 233.537L130.385 221.269L137.255 224.958L130.668 237.226Z" fill="#3F3CE1"/>
<path d="M190.05 209.052L183.18 205.363L186.869 198.493L193.739 202.182L190.05 209.052Z" fill="#3F3CE1"/>
<path d="M167.088 218.849L160.218 215.16L163.907 208.29L170.777 211.979L167.088 218.849Z" fill="#3F3CE1"/>
<path d="M147.814 221.777L140.944 218.088L144.633 211.218L151.503 214.907L147.814 221.777Z" fill="#3F3CE1"/>
<path d="M225.23 130.583L218.36 126.894L228.372 108.246L235.242 111.935L225.23 130.583Z" fill="#3F3CE1"/>
<path d="M222.049 120.023L215.178 116.334L224.664 98.6682L231.534 102.357L222.049 120.023Z" fill="#3F3CE1"/>
<path d="M218.867 109.464L211.997 105.775L220.165 90.5627L227.036 94.2516L218.867 109.464Z" fill="#3F3CE1"/>
<path d="M126.696 228.139L119.826 224.45L123.515 217.58L130.385 221.269L126.696 228.139Z" fill="#3F3CE1"/>
<path d="M186.934 221.92L177.12 216.65L183.18 205.363L192.995 210.633L186.934 221.92Z" fill="#3F3CE1"/>
<path d="M160.237 231.608L153.367 227.919L160.218 215.16L167.088 218.849L160.237 231.608Z" fill="#3F3CE1"/>
<path d="M139.909 236.499L133.039 232.81L140.944 218.088L147.814 221.777L139.909 236.499Z" fill="#3F3CE1"/>
<path d="M121.953 236.972L112.139 231.702L116.882 222.869L126.696 228.139L121.953 236.972Z" fill="#3F3CE1"/>
<path d="M111.593 87.8991L104.723 84.2103L116.053 63.1092L122.923 66.7981L111.593 87.8991Z" fill="#3F3CE1"/>
<path d="M231.554 118.805L224.684 115.116L228.372 108.246L235.243 111.935L231.554 118.805Z" fill="#0F1B85"/>
<path d="M138.547 137.776L131.677 134.087L135.366 127.217L142.236 130.906L138.547 137.776Z" fill="#0F1B85"/>
<path d="M127.99 140.957L121.12 137.268L124.808 130.398L131.679 134.087L127.99 140.957Z" fill="#0F1B85"/>
<path d="M165.505 187.654L158.634 183.965L162.323 177.095L169.193 180.784L165.505 187.654Z" fill="#0F1B85"/>
<path d="M79.9154 97.4427L73.0453 93.7538L76.7342 86.8837L83.6043 90.5725L79.9154 97.4427Z" fill="#0F1B85"/>
<path d="M189.803 191.85L182.933 188.161L186.622 181.291L193.492 184.98L189.803 191.85Z" fill="#0F1B85"/>
<path d="M104.215 101.64L97.3447 97.9507L101.034 91.0806L107.904 94.7694L104.215 101.64Z" fill="#0F1B85"/>
<path d="M162.323 177.095L155.453 173.406L159.142 166.536L166.012 170.224L162.323 177.095Z" fill="#0F1B85"/>
<path d="M76.7341 86.8839L69.864 83.195L73.5529 76.3249L80.423 80.0138L76.7341 86.8839Z" fill="#0F1B85"/>
<path d="M166.012 170.224L159.142 166.536L162.831 159.665L169.701 163.354L166.012 170.224Z" fill="#0F1B85"/>
<path d="M80.4232 80.0134L73.5531 76.3245L77.242 69.4544L84.1121 73.1433L80.4232 80.0134Z" fill="#0F1B85"/>
<path d="M154.946 190.835L148.076 187.146L151.764 180.276L158.635 183.965L154.946 190.835Z" fill="#0F1B85"/>
<path d="M69.3564 100.624L62.4863 96.9351L66.1752 90.0649L73.0453 93.7538L69.3564 100.624Z" fill="#0F1B85"/>
<path d="M179.245 195.032L172.375 191.343L176.064 184.473L182.934 188.161L179.245 195.032Z" fill="#0F1B85"/>
<path d="M93.6558 104.821L86.7856 101.132L90.4745 94.2618L97.3446 97.9507L93.6558 104.821Z" fill="#0F1B85"/>
<path d="M88.6882 147.04L68.0779 135.973L87.0493 100.641L107.66 111.708L88.6882 147.04Z" fill="#3F3CE1"/>
<path d="M157.273 85.242L150.403 81.5531L154.091 74.683L160.962 78.3719L157.273 85.242Z" fill="#3F3CE1"/>
<path d="M154.091 74.6828L147.221 70.994L150.91 64.1238L157.78 67.8127L154.091 74.6828Z" fill="#3F3CE1"/>
<path d="M159.141 166.535L152.271 162.846L155.96 155.976L162.83 159.665L159.141 166.535Z" fill="#153177"/>
<path d="M144.894 176.587L138.024 172.898L141.713 166.028L148.583 169.717L144.894 176.587Z" fill="#153177"/>
<path d="M73.553 76.3244L66.6829 72.6356L70.3717 65.7654L77.2419 69.4543L73.553 76.3244Z" fill="#153177"/>
<path d="M183.441 170.732L176.08 166.779L179.769 159.909L187.13 163.861L183.441 170.732Z" fill="#153177"/>
<path d="M169.193 180.783L162.323 177.095L166.012 170.224L172.882 173.913L169.193 180.783Z" fill="#3F3CE1"/>
<path d="M83.6042 90.5728L76.7341 86.8839L80.423 80.0138L87.2931 83.7027L83.6042 90.5728Z" fill="#3F3CE1"/>
<path d="M193.492 184.979L186.622 181.291L190.31 174.42L197.181 178.109L193.492 184.979Z" fill="#3F3CE1"/>
<path d="M107.904 94.7691L101.034 91.0802L104.723 84.2101L111.593 87.899L107.904 94.7691Z" fill="#3F3CE1"/>
<path d="M158.634 183.965L151.764 180.276L155.453 173.406L162.323 177.095L158.634 183.965Z" fill="#3F3CE1"/>
<path d="M73.0453 93.7538L66.1752 90.0649L69.8641 83.1948L76.7342 86.8836L73.0453 93.7538Z" fill="#3F3CE1"/>
<path d="M182.934 188.161L176.064 184.472L179.753 177.602L186.623 181.291L182.934 188.161Z" fill="#3F3CE1"/>
<path d="M97.3446 97.9506L90.4745 94.2617L94.1634 87.3916L101.033 91.0805L97.3446 97.9506Z" fill="#3F3CE1"/>
<path d="M173.39 156.484L166.52 152.795L170.209 145.925L177.079 149.614L173.39 156.484Z" fill="#3F3CE1"/>
<path d="M152.272 162.847L145.402 159.158L149.091 152.288L155.961 155.976L152.272 162.847Z" fill="#3F3CE1"/>
<path d="M66.6827 72.6355L59.8126 68.9467L63.5015 62.0765L70.3716 65.7654L66.6827 72.6355Z" fill="#3F3CE1"/>
<path d="M148.583 169.717L141.713 166.028L145.402 159.158L152.272 162.847L148.583 169.717Z" fill="#6776FF"/>
<path d="M172.882 173.913L166.012 170.224L169.701 163.354L176.571 167.043L172.882 173.913Z" fill="#6776FF"/>
<path d="M87.2935 83.7023L80.4233 80.0134L84.1122 73.1433L90.9823 76.8322L87.2935 83.7023Z" fill="#6776FF"/>
<path d="M151.763 180.275L144.893 176.586L148.582 169.716L155.452 173.405L151.763 180.275Z" fill="#6776FF"/>
<path d="M127.201 176.57L120.331 172.881L124.283 165.52L131.154 169.209L127.201 176.57Z" fill="#6776FF"/>
<path d="M66.1752 90.0649L59.3051 86.376L62.9939 79.5059L69.864 83.1947L66.1752 90.0649Z" fill="#6776FF"/>
<path d="M176.064 184.472L169.194 180.784L172.882 173.913L179.753 177.602L176.064 184.472Z" fill="#6776FF"/>
<path d="M90.4745 94.2617L83.6044 90.5728L87.2933 83.7027L94.1634 87.3916L90.4745 94.2617Z" fill="#6776FF"/>
<path d="M155.452 173.405L148.582 169.716L152.271 162.846L159.141 166.535L155.452 173.405Z" fill="#3F3CE1"/>
<path d="M134.072 180.259L127.201 176.57L131.154 169.209L138.024 172.898L134.072 180.259Z" fill="#3F3CE1"/>
<path d="M69.8639 83.1949L62.9938 79.506L66.6827 72.6359L73.5528 76.3248L69.8639 83.1949Z" fill="#3F3CE1"/>
<path d="M179.753 177.602L172.882 173.913L176.571 167.043L183.441 170.732L179.753 177.602Z" fill="#3F3CE1"/>
<path d="M94.1636 87.3912L87.2935 83.7023L90.9823 76.8322L97.8525 80.5211L94.1636 87.3912Z" fill="#3F3CE1"/>
<path d="M133.035 164.529L126.165 160.84L129.854 153.97L136.724 157.659L133.035 164.529Z" fill="#3F3CE1"/>
<path d="M136.723 157.66L129.853 153.971L133.542 147.101L140.412 150.79L136.723 157.66Z" fill="#3F3CE1"/>
<path d="M129.852 153.97L122.982 150.281L126.671 143.411L133.541 147.1L129.852 153.97Z" fill="#3F3CE1"/>
<path d="M120.33 172.881L112.969 168.928L119.293 157.151L126.654 161.103L120.33 172.881Z" fill="#3F3CE1"/>
<path d="M126.655 161.104L119.785 157.415L123.474 150.545L130.344 154.233L126.655 161.104Z" fill="#3F3CE1"/>
<path d="M119.785 157.415L112.915 153.726L116.603 146.856L123.474 150.545L119.785 157.415Z" fill="#3F3CE1"/>
<path d="M159.65 149.107L145.419 141.465L149.108 134.595L163.339 142.237L159.65 149.107Z" fill="#3F3CE1"/>
<path d="M112.138 231.702L62.5754 205.089L66.2643 198.219L115.827 224.832L112.138 231.702Z" fill="#3F3CE1"/>
<path d="M107.976 220.617L58.4132 194.004L62.1021 187.134L111.665 213.747L107.976 220.617Z" fill="#3F3CE1"/>
<path d="M111.665 213.746L62.1023 187.134L65.7912 180.264L115.354 206.876L111.665 213.746Z" fill="#3F3CE1"/>
<path d="M115.354 206.876L65.791 180.264L69.4799 173.394L119.043 200.006L115.354 206.876Z" fill="#3F3CE1"/>
<path d="M108.247 194.209L69.48 173.394L73.1689 166.523L111.936 187.339L108.247 194.209Z" fill="#3F3CE1"/>
<path d="M140.16 193.644L101.393 172.828L105.609 164.976L144.376 185.792L140.16 193.644Z" fill="#3F3CE1"/>
<path d="M111.935 187.339L83.9639 172.32L87.6527 165.45L115.624 180.469L111.935 187.339Z" fill="#3F3CE1"/>
<path d="M123.694 48.8784L116.824 45.1895L120.512 38.3194L127.383 42.0083L123.694 48.8784Z" fill="#3F3CE1"/>
<path d="M106.116 147.547L99.2462 143.858L102.935 136.988L109.805 140.677L106.116 147.547Z" fill="#3F3CE1"/>
<path d="M102.428 154.417L95.5575 150.728L99.2464 143.858L106.116 147.547L102.428 154.417Z" fill="#3F3CE1"/>
<path d="M132.694 99.2292L125.823 95.5403L133.465 81.3094L140.335 84.9983L132.694 99.2292Z" fill="#3F3CE1"/>
<path d="M97.5889 81.0119L90.7188 77.3231L94.9346 69.4715L101.805 73.1604L97.5889 81.0119Z" fill="#3F3CE1"/>
<path d="M84.9995 153.91L78.1294 150.221L81.8183 143.351L88.6884 147.04L84.9995 153.91Z" fill="#3F3CE1"/>
<path d="M101.034 91.0801L94.1636 87.3912L105.494 66.2902L112.364 69.979L101.034 91.0801Z" fill="#3F3CE1"/>
<path d="M71.7666 129.103L64.8965 125.414L76.2266 104.313L83.0967 108.002L71.7666 129.103Z" fill="#3F3CE1"/>
<path d="M59.929 167.633L53.0588 163.944L64.389 142.843L71.2591 146.532L59.929 167.633Z" fill="#3F3CE1"/>
<path d="M40.4834 185.009L33.6133 181.32L44.9434 160.219L51.8135 163.907L40.4834 185.009Z" fill="#3F3CE1"/>
<path d="M42.3085 165.126L35.4384 161.437L46.7685 140.336L53.6386 144.025L42.3085 165.126Z" fill="#3F3CE1"/>
<path d="M36.2286 159.965L29.3585 156.276L48.5934 120.453L55.4635 124.142L36.2286 159.965Z" fill="#3F3CE1"/>
<path d="M36.473 143.027L23.7142 136.176L44.5301 97.4088L57.2888 104.26L36.473 143.027Z" fill="#3F3CE1"/>
<path d="M83.9639 172.32L77.0938 168.631L103.706 119.068L110.577 122.757L83.9639 172.32Z" fill="#3F3CE1"/>
<path d="M150.403 81.5534L137.154 74.4391L140.843 67.569L154.092 74.6833L150.403 81.5534Z" fill="#3F3CE1"/>
<path d="M176.079 166.779L155.96 155.976L159.648 149.106L179.768 159.909L176.079 166.779Z" fill="#3F3CE1"/>
<path d="M177.078 149.614L156.958 138.811L160.647 131.941L180.767 142.744L177.078 149.614Z" fill="#3F3CE1"/>
<path d="M172.783 57.5346L137.942 38.8267L141.631 31.9565L176.472 50.6644L172.783 57.5346Z" fill="#3F3CE1"/>
<path d="M125.824 95.5405L111.593 87.8992L137.942 38.827L152.173 46.4682L125.824 95.5405Z" fill="#3F3CE1"/>
<path d="M36.2286 159.965L29.3585 156.276L33.0474 149.406L39.9175 153.095L36.2286 159.965Z" fill="#0F1B85"/>
<path d="M47.7112 107.968L40.8411 104.279L44.5299 97.409L51.4001 101.098L47.7112 107.968Z" fill="#0F1B85"/>
<path d="M51.7747 131.012L44.9045 127.323L48.5934 120.453L55.4635 124.142L51.7747 131.012Z" fill="#1E1C87"/>
<path d="M48.0857 137.883L41.2156 134.194L44.9045 127.324L51.7746 131.012L48.0857 137.883Z" fill="#8AABFF"/>
<path d="M51.2793 190.805L33.6133 181.32L37.3022 174.45L54.9682 183.935L51.2793 190.805Z" fill="#0F1B85"/>
<path d="M166.894 54.3721L160.024 50.6832L163.712 43.8131L170.583 47.502L166.894 54.3721Z" fill="#0F1B85"/>
<path d="M160.025 50.6839L153.155 46.995L156.843 40.1249L163.714 43.8138L160.025 50.6839Z" fill="#0F1B85"/>
<path d="M153.155 46.9949L146.284 43.306L149.973 36.4359L156.843 40.1248L153.155 46.9949Z" fill="#0F1B85"/>
<path d="M125.823 95.5403L118.953 91.8514L131.074 69.2781L137.944 72.967L125.823 95.5403Z" fill="#0F1B85"/>
<path d="M118.953 91.8514L112.083 88.1625L116.036 80.8016L122.906 84.4905L118.953 91.8514Z" fill="#0F1B85"/>
<path d="M112.083 88.1625L105.213 84.4736L109.165 77.1127L116.035 80.8016L112.083 88.1625Z" fill="#0F1B85"/>
<path d="M105.213 84.4737L97.8524 80.5214L101.805 73.1605L109.166 77.1129L105.213 84.4737Z" fill="#0F1B85"/>
<path d="M78.5635 135.281L71.6934 131.592L75.6457 124.231L82.5158 127.92L78.5635 135.281Z" fill="#0F1B85"/>
<path d="M89.3862 131.609L82.5161 127.92L86.4685 120.559L93.3386 124.248L89.3862 131.609Z" fill="#0F1B85"/>
<path d="M84.9434 138.707L78.0732 135.018L82.0256 127.657L88.8957 131.346L84.9434 138.707Z" fill="#0F1B85"/>
<path d="M54.7245 200.874L47.8544 197.185L59.975 174.612L66.8451 178.3L54.7245 200.874Z" fill="#0F1B85"/>
<path d="M30.5843 139.865L23.7142 136.176L35.8348 113.603L42.705 117.291L30.5843 139.865Z" fill="#0F1B85"/>
<path d="M93.4916 221.69L47.8544 197.185L51.5433 190.315L97.1804 214.819L93.4916 221.69Z" fill="#0F1B85"/>
<path d="M93.491 221.689L69.4456 208.778L73.3979 201.417L97.4433 214.328L93.491 221.689Z" fill="#3F3CE1"/>
<path d="M93.2369 230.404L65.7565 215.649L69.4454 208.779L96.9258 223.534L93.2369 230.404Z" fill="#0F1B85"/>
</svg>
